<?xml version="1.0" encoding="utf-8"?>
<svg viewBox="0 0 500 500" xmlns="http://www.w3.org/2000/svg">
  <path d="M 401.854 289.399 L 108.143 289.843 L 108.076 247.885 L 401.786 247.438 L 401.854 289.399 Z" fill="#455A64" style=""/>
  <path d="M 92.784 216.975 C 92.784 216.975 100.129 217.767 101.434 216.975 C 104.39 215.138 168.676 190.122 223.914 190.064 C 268.217 190.007 308.109 201.349 346.909 226.353 C 346.909 226.353 394.159 231.378 412.612 244.729 C 416.922 247.144 425.727 256.67 422.367 278.308 C 420.23 292.104 409.584 292.687 395.047 292.372 C 395.047 292.372 400.457 250.464 361.764 253.665 C 328.885 256.383 335.177 295.128 335.177 295.128 L 170.437 295.379 C 170.437 295.379 169.714 278.165 169.011 273.997 C 167.614 265.648 156.866 251.966 136.797 253.998 C 114.782 256.229 107.456 275.62 108.866 291.988 C 108.866 291.988 85.638 296.836 82.499 278.799 L 76.954 277.135 C 76.954 277.135 74.822 239.723 94.176 223.995 L 90.024 221.327 L 92.784 216.975 Z" fill="#525289" style=""/>
  <path d="M 103.74 215.778 C 103.74 215.778 105.11 219.383 109.835 218.974 C 113.68 218.648 135.664 210.608 143.679 207.639 C 144.824 207.235 145.852 206.577 146.686 205.717 C 147.516 204.857 148.128 203.821 148.467 202.692 C 148.635 202.217 148.673 201.708 148.572 201.214 C 148.572 201.214 114.395 209.142 103.74 215.778 Z" fill="#455A64" style=""/>
  <path d="M 292.445 200.107 C 292.45 201.625 292.902 203.11 293.743 204.39 C 294.583 205.672 295.782 206.698 297.2 207.353 L 344.224 228.979 L 346.914 226.188 C 346.914 226.188 341.998 222.773 335.576 219.085 C 329.615 215.675 322.329 212.052 317.979 210.004 C 309.725 206.119 301.191 202.812 292.445 200.107 Z" fill="#455A64" style=""/>
  <g opacity="0.3" transform="matrix(2.508912, 0, 0, 2.508912, 76.885612, 189.678299)" style="">
    <path opacity="0.3" d="M23.6893 11.6801C23.5628 11.7846 23.4612 11.9143 23.3915 12.0604C23.3219 12.2064 23.2858 12.3653 23.2858 12.5261C23.2858 12.6869 23.3219 12.8457 23.3915 12.9918C23.4612 13.1378 23.5628 13.2676 23.6893 13.3721C24.6186 14.287 29.0457 17.4647 31.1022 17.6584C33.1587 17.852 95.6113 21.8758 99.3072 20.8539C103.003 19.8321 105.168 18.0228 104.239 16.9831L102.562 16.4479L73.1218 17.0289L23.6893 11.6801Z" fill="white"/>
  </g>
  <g opacity="0.7" transform="matrix(2.508912, 0, 0, 2.508912, 76.885612, 189.678299)" style="">
    <path opacity="0.7" d="M0.972769 24.498C0.972769 24.498 4.60793 25.5377 6.1602 22.7702C7.71248 20.0028 9.42316 17.0774 9.42316 16.4454C9.42316 15.6529 8.83445 13.1046 6.89147 13.6219C6.89147 13.6219 1.48755 17.7781 0.972769 24.498Z" fill="white"/>
  </g>
  <g opacity="0.7" transform="matrix(2.508912, 0, 0, 2.508912, 76.885612, 189.678299)" style="">
    <path opacity="0.7" d="M135.413 27.3368C135.413 27.3368 121.337 21.9013 123.616 20.0487C124.817 19.0701 136.39 24.4521 135.413 27.3368Z" fill="white"/>
  </g>
  <path d="M 402.206 292.25 C 402.206 292.25 402.206 292.137 402.206 291.911 C 402.206 291.687 402.245 291.348 402.253 290.902 C 402.253 290.019 402.293 288.722 402.253 287.066 C 402.057 282.325 401.302 277.62 399.999 273.044 C 399.099 269.875 397.84 266.812 396.244 263.909 C 394.425 260.565 392.004 257.559 389.092 255.034 L 387.919 254.044 L 386.655 253.14 C 385.79 252.536 384.891 251.972 383.966 251.455 C 383.508 251.179 383.005 250.975 382.52 250.732 C 382.038 250.488 381.555 250.24 381.038 250.042 L 379.495 249.452 L 378.712 249.159 L 377.912 248.923 C 376.825 248.582 375.719 248.303 374.6 248.085 L 372.918 247.746 C 372.347 247.663 371.773 247.606 371.203 247.528 C 370.634 247.453 370.048 247.38 369.467 247.325 L 367.718 247.239 C 366.539 247.146 365.357 247.122 364.175 247.164 C 359.531 247.154 354.927 247.978 350.597 249.593 C 346.575 251.139 342.957 253.522 339.999 256.575 C 337.365 259.363 335.212 262.544 333.629 265.994 C 332.24 268.987 331.168 272.108 330.428 275.307 C 329.366 279.928 328.807 284.643 328.759 289.375 C 328.759 291.055 328.807 292.36 328.86 293.24 C 328.86 293.677 328.92 294.016 328.945 294.24 C 328.973 294.462 328.997 294.577 328.997 294.577 C 328.997 294.577 328.997 294.462 328.997 294.24 C 328.997 294.016 328.997 293.664 328.952 293.236 C 328.912 292.352 328.885 291.055 328.952 289.399 C 329.041 284.665 329.633 279.95 330.721 275.334 C 331.471 272.153 332.551 269.055 333.94 266.082 C 335.521 262.665 337.664 259.519 340.285 256.761 C 343.22 253.743 346.811 251.393 350.803 249.874 C 355.096 248.273 359.659 247.461 364.26 247.471 C 368.857 247.358 373.445 247.945 377.851 249.21 L 378.654 249.44 L 379.422 249.733 L 380.952 250.311 C 381.462 250.509 381.931 250.769 382.415 250.993 C 382.9 251.217 383.395 251.435 383.845 251.71 C 384.758 252.215 385.644 252.77 386.495 253.366 L 387.753 254.26 L 388.912 255.238 C 391.804 257.734 394.211 260.707 396.026 264.017 C 397.632 266.887 398.904 269.918 399.821 273.056 C 401.142 277.613 401.932 282.297 402.18 287.021 C 402.265 288.697 402.278 289.995 402.273 290.857 L 402.273 291.861 C 402.206 292.137 402.206 292.25 402.206 292.25 Z" fill="#263238" style=""/>
  <path d="M 175.986 295.23 C 175.986 295.23 175.986 295.114 176.035 294.892 C 176.079 294.668 176.079 294.342 176.107 293.905 C 176.164 293.038 176.217 291.746 176.205 290.07 C 176.184 285.385 175.651 280.716 174.609 276.14 C 173.894 272.977 172.85 269.887 171.495 266.927 C 169.938 263.515 167.805 260.376 165.184 257.637 C 162.266 254.616 158.68 252.265 154.693 250.765 C 150.398 249.184 145.842 248.372 141.248 248.366 C 136.672 248.188 132.093 248.705 127.683 249.894 C 127.419 249.972 127.146 250.027 126.887 250.113 L 126.112 250.386 L 124.569 250.943 C 123.563 251.326 122.582 251.826 121.643 252.26 C 120.736 252.797 119.803 253.283 118.947 253.863 L 117.695 254.754 C 117.489 254.899 117.271 255.04 117.08 255.2 L 116.503 255.692 C 113.589 258.146 111.159 261.084 109.322 264.368 C 107.742 267.228 106.51 270.257 105.654 273.391 C 104.405 277.919 103.738 282.578 103.667 287.265 C 103.635 288.92 103.667 290.213 103.74 291.101 C 103.74 291.534 103.793 291.869 103.821 292.091 C 103.845 292.315 103.873 292.422 103.873 292.422 C 103.883 292.309 103.883 292.196 103.873 292.085 C 103.873 291.849 103.873 291.522 103.821 291.093 C 103.821 290.225 103.76 288.938 103.821 287.289 C 103.94 282.618 104.635 277.979 105.893 273.468 C 106.765 270.357 108.003 267.353 109.581 264.516 C 111.418 261.268 113.841 258.362 116.741 255.943 L 117.311 255.456 C 117.509 255.303 117.723 255.168 117.921 255.015 L 119.165 254.139 C 120.005 253.57 120.934 253.091 121.814 252.561 C 122.775 252.132 123.716 251.641 124.714 251.282 L 126.24 250.737 L 127.008 250.468 C 127.266 250.381 127.537 250.323 127.802 250.253 C 132.174 249.061 136.71 248.539 141.248 248.705 C 145.795 248.715 150.301 249.521 154.548 251.084 C 158.497 252.561 162.054 254.877 164.952 257.86 C 167.557 260.572 169.679 263.678 171.237 267.056 C 172.587 270 173.636 273.066 174.363 276.21 C 175.415 280.768 175.984 285.421 176.059 290.09 C 176.092 291.746 176.059 293.03 176.027 293.925 C 176.027 294.355 176.027 294.68 175.979 294.916 C 175.934 295.153 175.986 295.23 175.986 295.23 Z" fill="#263238" style=""/>
  <path d="M 137.869 218.974 C 137.869 218.974 151.567 230.483 157.501 230.483 C 163.435 230.483 319.845 239.638 326.808 236.921 C 330.473 235.561 334.018 233.91 337.402 231.986 C 337.402 231.986 286.364 196.502 226.887 198.203 C 183.224 199.45 137.869 218.974 137.869 218.974 Z" fill="#455A64" style=""/>
  <path d="M 305.811 215.043 L 316.142 237.42 L 321.388 237.414 L 312.851 218.259 L 305.811 215.043 Z" fill="#263238" style=""/>
  <g opacity="0.3" transform="matrix(2.508912, 0, 0, 2.508912, 76.885612, 189.678299)" style="">
    <path opacity="0.3" d="M39.275 23.1584L46.6668 23.1471L46.6644 21.7227C46.6643 21.6368 46.6288 21.5546 46.5659 21.494C46.5029 21.4334 46.4176 21.3994 46.3287 21.3995L39.6074 21.4097C39.5185 21.4099 39.4333 21.4441 39.3705 21.5049C39.3077 21.5657 39.2725 21.648 39.2727 21.7339L39.275 23.1456L39.275 23.1584Z" fill="black"/>
  </g>
  <g opacity="0.3" transform="matrix(2.508912, 0, 0, 2.508912, 76.885612, 189.678299)" style="">
    <path opacity="0.3" d="M68.0845 23.1154L75.4763 23.1042L75.474 21.6924C75.4738 21.6066 75.4384 21.5243 75.3754 21.4638C75.3124 21.4032 75.2271 21.3692 75.1382 21.3693L68.4143 21.3795C68.3254 21.3797 68.2402 21.4139 68.1774 21.4747C68.1146 21.5355 68.0794 21.6178 68.0796 21.7037L68.0818 23.1154L68.0845 23.1154Z" fill="black"/>
  </g>
  <path d="M 183.503 204.352 L 167.311 230.919 L 182.396 231.697 L 180.45 218.916 L 190.361 202.819 L 183.503 204.352 Z" fill="#263238" style=""/>
  <path d="M 242.546 198.58 L 245.068 234.868 L 239.565 234.607 L 237.186 198.253 L 242.546 198.58 Z" fill="#263238" style=""/>
  <path d="M 313.031 242.907 L 310.68 240.559 L 314.421 235.962 L 317.64 238.935 C 318.12 239.329 318.417 239.892 318.467 240.496 C 318.92 243.353 315.111 244.977 313.031 242.907 Z" fill="#263238" style=""/>
  <path d="M 303.519 242.043 C 297.802 242.229 293.306 236.602 295.684 231.576 C 295.93 230.964 296.336 230.423 296.861 230.006 C 297.386 229.589 298.015 229.308 298.685 229.193 C 304.646 228.187 312.361 227.818 314.441 235.962 C 315.05 238.373 313.653 239.864 311.367 240.764 C 309.194 241.62 306.262 241.946 303.519 242.043 Z" fill="#525289" style=""/>
  <path d="M 339.886 285.488 C 338.888 271.551 349.783 259.468 364.222 258.502 C 378.664 257.538 391.178 268.056 392.18 281.996 C 393.178 295.932 382.284 308.016 367.843 308.979 C 353.404 309.945 340.887 299.428 339.886 285.488 Z" fill="#263238" style=""/>
  <path d="M 366.009 266.882 C 369.464 266.872 372.841 267.853 375.719 269.697 C 378.594 271.543 380.84 274.17 382.169 277.246 C 383.498 280.325 383.853 283.712 383.187 286.984 C 382.523 290.255 380.867 293.261 378.429 295.624 C 375.992 297.988 372.886 299.598 369.499 300.256 C 366.114 300.912 362.602 300.587 359.408 299.317 C 356.215 298.048 353.482 295.892 351.558 293.125 C 349.634 290.358 348.602 287.101 348.597 283.767 C 348.592 281.554 349.039 279.361 349.91 277.317 C 350.783 275.271 352.063 273.411 353.68 271.842 C 355.296 270.275 357.218 269.029 359.333 268.179 C 361.448 267.326 363.719 266.887 366.009 266.882 Z M 380.019 283.722 C 380.014 281.053 379.191 278.443 377.65 276.228 C 376.11 274.009 373.925 272.281 371.369 271.265 C 368.812 270.247 365.999 269.982 363.289 270.507 C 360.577 271.032 358.089 272.321 356.134 274.211 C 354.182 276.103 352.855 278.508 352.318 281.128 C 351.784 283.745 352.065 286.459 353.126 288.923 C 354.187 291.389 355.983 293.494 358.285 294.975 C 360.585 296.455 363.289 297.243 366.056 297.237 C 369.762 297.225 373.312 295.797 375.929 293.263 C 378.546 290.73 380.016 287.299 380.019 283.722 Z" fill="#E0E0E0" style=""/>
  <path d="M 366.017 270.219 C 368.784 270.212 371.491 271 373.797 272.476 C 376.103 273.957 377.902 276.062 378.965 278.528 C 380.031 280.994 380.315 283.712 379.78 286.331 C 379.249 288.953 377.922 291.364 375.969 293.258 C 374.015 295.153 371.526 296.445 368.812 296.972 C 366.1 297.499 363.285 297.237 360.723 296.221 C 358.164 295.205 355.973 293.479 354.43 291.261 C 352.887 289.044 352.059 286.431 352.055 283.759 C 352.049 280.179 353.515 276.739 356.134 274.203 C 358.751 271.664 362.306 270.231 366.017 270.219 Z" fill="#F5F5F5" style=""/>
  <path d="M 370.169 283.779 C 370.171 284.567 369.928 285.34 369.477 285.998 C 369.022 286.655 368.378 287.166 367.625 287.47 C 366.87 287.771 366.039 287.852 365.236 287.701 C 364.434 287.548 363.695 287.169 363.119 286.612 C 362.54 286.055 362.146 285.346 361.985 284.57 C 361.821 283.797 361.904 282.994 362.215 282.264 C 362.526 281.537 363.057 280.912 363.733 280.473 C 364.414 280.033 365.212 279.798 366.029 279.795 C 366.571 279.795 367.11 279.898 367.613 280.096 C 368.114 280.297 368.568 280.59 368.954 280.96 C 369.339 281.331 369.642 281.77 369.853 282.254 C 370.061 282.735 370.169 283.256 370.169 283.779 Z" fill="#263238" style=""/>
  <path d="M 122.002 302.526 C 111.769 292.646 111.769 276.63 122.002 266.749 C 132.239 256.869 148.833 256.869 159.069 266.749 C 169.303 276.63 169.303 292.646 159.069 302.526 C 148.833 312.407 132.239 312.407 122.002 302.526 Z" fill="#263238" style=""/>
  <path d="M 140.513 267.783 C 143.966 267.775 147.345 268.754 150.22 270.598 C 153.098 272.444 155.341 275.071 156.67 278.147 C 158.001 281.223 158.356 284.609 157.692 287.882 C 157.024 291.154 155.371 294.161 152.934 296.522 C 150.499 298.886 147.393 300.498 144.006 301.156 C 140.621 301.816 137.108 301.49 133.915 300.221 C 130.72 298.953 127.988 296.798 126.065 294.031 C 124.14 291.263 123.107 288.007 123.099 284.675 C 123.089 280.207 124.918 275.917 128.182 272.748 C 131.449 269.582 135.884 267.795 140.513 267.783 Z M 154.495 284.63 C 154.491 281.958 153.667 279.346 152.127 277.129 C 150.584 274.908 148.396 273.179 145.837 272.163 C 143.277 271.145 140.462 270.883 137.748 271.414 C 135.036 271.94 132.548 273.235 130.595 275.129 C 128.644 277.024 127.319 279.434 126.79 282.058 C 126.26 284.68 126.546 287.395 127.618 289.859 C 128.686 292.323 130.49 294.425 132.798 295.9 C 135.106 297.372 137.816 298.153 140.585 298.138 C 144.281 298.115 147.819 296.683 150.424 294.151 C 153.031 291.62 154.493 288.198 154.495 284.63 Z" fill="#E0E0E0" style=""/>
  <path d="M 140.518 271.127 C 143.288 271.119 145.995 271.905 148.301 273.383 C 150.606 274.861 152.407 276.965 153.474 279.431 C 154.54 281.897 154.824 284.615 154.292 287.237 C 153.76 289.859 152.433 292.269 150.481 294.163 C 148.526 296.058 146.038 297.35 143.323 297.879 C 140.611 298.406 137.796 298.145 135.234 297.13 C 132.675 296.114 130.485 294.387 128.943 292.17 C 127.396 289.951 126.571 287.339 126.564 284.668 C 126.556 281.087 128.022 277.65 130.638 275.111 C 133.255 272.573 136.807 271.139 140.518 271.127 Z" fill="#F5F5F5" style=""/>
  <path d="M 144.67 284.712 C 144.673 285.503 144.432 286.273 143.978 286.931 C 143.524 287.588 142.879 288.1 142.124 288.404 C 141.369 288.707 140.538 288.785 139.735 288.632 C 138.935 288.478 138.198 288.1 137.618 287.543 C 137.041 286.986 136.645 286.273 136.486 285.501 C 136.326 284.726 136.407 283.922 136.72 283.195 C 137.033 282.465 137.562 281.84 138.243 281.404 C 138.923 280.964 139.721 280.729 140.538 280.729 C 141.635 280.729 142.683 281.15 143.459 281.895 C 144.234 282.642 144.67 283.656 144.67 284.712 Z" fill="#263238" style=""/>
  <path d="M 128.127 237.106 C 128.137 237.884 128.388 238.642 128.844 239.284 C 129.301 239.924 129.943 240.421 130.69 240.71 C 131.441 240.995 132.261 241.063 133.049 240.902 C 133.836 240.739 134.557 240.355 135.119 239.799 C 135.681 239.239 136.06 238.533 136.205 237.768 C 136.351 237.004 136.258 236.213 135.939 235.5 C 135.621 234.785 135.088 234.179 134.414 233.755 C 133.737 233.333 132.946 233.112 132.141 233.125 C 131.062 233.139 130.033 233.567 129.28 234.314 C 128.529 235.062 128.111 236.065 128.127 237.106 Z" fill="#263238" style=""/>
  <path d="M 176.087 286.311 L 176.475 286.311 L 177.635 286.311 L 182.085 286.394 L 198.447 286.65 L 252.433 287.289 C 273.523 287.501 292.616 287.636 306.433 287.653 C 313.342 287.653 318.937 287.653 322.801 287.59 C 326.662 287.525 328.813 287.442 328.759 287.322 C 328.252 287.4 327.738 287.432 327.224 287.418 C 326.21 287.418 324.707 287.455 322.781 287.463 C 318.92 287.463 313.322 287.463 306.413 287.422 L 252.421 286.951 L 198.434 286.402 L 182.065 286.253 L 177.614 286.253 L 176.455 286.253 L 176.087 286.311 Z" fill="#263238" style=""/>
  <path d="M 242.909 295.108 C 243.008 295.108 242.909 281.682 242.638 265.148 C 242.365 248.614 242.107 235.182 242.014 235.189 C 241.921 235.195 242.014 248.614 242.292 265.148 C 242.57 281.682 242.816 295.108 242.909 295.108 Z" fill="#263238" style=""/>
  <path d="M 206.567 208.791 C 206.508 208.861 210.78 212.627 216.111 217.203 C 221.443 221.782 225.814 225.433 225.881 225.362 C 225.946 225.292 221.669 221.525 216.335 216.955 C 211.004 212.383 206.633 208.726 206.567 208.791 Z" fill="#F5F5F5" style=""/>
  <path d="M 208.665 216.042 C 208.871 216.27 209.091 216.483 209.328 216.681 C 209.766 217.082 210.408 217.652 211.217 218.342 C 212.825 219.738 215.079 221.616 217.622 223.636 C 220.164 225.655 222.515 227.434 224.243 228.694 C 225.106 229.334 225.808 229.817 226.297 230.156 C 226.544 230.348 226.808 230.513 227.085 230.655 C 226.87 230.435 226.636 230.235 226.384 230.056 L 224.396 228.508 C 222.715 227.228 220.422 225.4 217.846 223.393 C 215.269 221.386 213.031 219.518 211.383 218.177 L 209.396 216.596 C 209.172 216.388 208.928 216.2 208.665 216.042 Z" fill="#F5F5F5" style=""/>
  <path d="M 262.554 209.588 C 262.502 209.667 268.734 213.861 276.464 218.962 C 284.191 224.065 290.524 228.137 290.576 228.06 C 290.629 227.984 284.405 223.789 276.667 218.688 C 268.932 213.585 262.607 209.513 262.554 209.588 Z" fill="#F5F5F5" style=""/>
  <path d="M 256.751 209.335 C 256.999 209.571 257.268 209.784 257.554 209.972 L 259.804 211.648 L 267.244 217.161 L 274.615 222.753 L 276.848 224.454 C 277.111 224.675 277.394 224.873 277.696 225.043 C 277.462 224.793 277.206 224.562 276.933 224.351 C 276.428 223.924 275.689 223.317 274.768 222.569 C 272.926 221.085 270.349 219.065 267.482 216.897 C 264.614 214.729 261.924 212.813 259.978 211.458 C 259.004 210.78 258.209 210.241 257.651 209.877 C 257.371 209.671 257.067 209.489 256.751 209.335 Z" fill="#F5F5F5" style=""/>
  <path d="M 350.266 227.728 C 350.326 227.747 350.389 227.763 350.451 227.765 L 350.981 227.844 L 353.033 228.112 C 354.817 228.347 357.394 228.699 360.557 229.223 C 368.817 230.591 376.975 232.467 384.984 234.843 C 389.676 236.239 394.078 237.741 398.04 239.229 C 401.568 240.488 405.007 241.968 408.332 243.667 C 410.565 244.824 412.635 246.254 414.491 247.92 C 414.83 248.206 415.101 248.487 415.339 248.725 C 415.577 248.961 415.783 249.172 415.936 249.362 L 416.3 249.747 C 416.338 249.791 416.381 249.834 416.425 249.874 C 416.425 249.874 416.425 249.816 416.328 249.729 L 415.989 249.319 C 415.844 249.139 415.658 248.923 415.42 248.68 C 415.181 248.436 414.915 248.143 414.584 247.842 C 412.75 246.13 410.688 244.666 408.452 243.481 C 405.13 241.748 401.689 240.24 398.153 238.967 C 394.179 237.46 389.781 235.938 385.085 234.55 C 377.068 232.166 368.889 230.318 360.613 229.013 C 357.431 228.521 354.85 228.202 353.061 228.004 L 351.001 227.798 L 350.464 227.753 C 350.401 227.733 350.334 227.725 350.266 227.728 Z" fill="#F5F5F5" style=""/>
  <path d="M 185.304 194.432 L 185.579 194.432 L 186.378 194.305 L 189.44 193.792 C 192.089 193.356 195.955 192.768 200.745 192.212 C 213.219 190.716 225.816 190.408 238.353 191.291 C 253.035 192.405 266.097 195.23 275.443 197.443 C 280.126 198.566 283.894 199.545 286.497 200.236 L 289.498 201.023 L 290.28 201.221 C 290.368 201.249 290.458 201.269 290.551 201.278 C 290.466 201.239 290.378 201.209 290.285 201.189 L 289.518 200.957 L 286.537 200.107 C 283.94 199.38 280.179 198.364 275.503 197.212 C 266.149 194.941 253.083 192.096 238.366 190.96 C 225.808 190.07 213.191 190.411 200.704 191.976 C 195.91 192.562 192.053 193.19 189.399 193.665 C 188.075 193.893 187.049 194.106 186.354 194.234 L 185.558 194.392 C 185.473 194.397 185.387 194.41 185.304 194.432 Z" fill="#F5F5F5" style=""/>
  <path d="M 296.492 231.007 C 296.783 231.005 297.075 230.977 297.36 230.924 C 297.909 230.861 298.685 230.764 299.698 230.721 C 302.277 230.57 304.864 230.837 307.354 231.507 C 308.711 231.891 309.985 232.505 311.117 233.323 C 312.03 233.997 312.795 234.843 313.368 235.809 C 313.881 236.712 314.215 237.701 314.348 238.725 C 314.348 238.725 314.348 238.646 314.348 238.507 C 314.353 238.293 314.338 238.08 314.308 237.869 C 314.195 237.103 313.944 236.364 313.566 235.681 C 313.006 234.668 312.231 233.777 311.294 233.067 C 310.141 232.202 308.834 231.552 307.433 231.148 C 304.907 230.467 302.277 230.229 299.664 230.445 C 298.876 230.503 298.091 230.608 297.313 230.758 C 297.031 230.814 296.756 230.897 296.492 231.007 Z" fill="#F5F5F5" style=""/>
  <path d="M 247.937 239.682 C 247.937 239.781 257.566 240.405 269.457 241.09 C 281.343 241.776 290.988 242.255 290.995 242.164 C 291 242.073 281.371 241.441 269.477 240.757 C 257.579 240.074 247.942 239.595 247.937 239.682 Z" fill="#F5F5F5" style=""/>
  <path d="M 356.292 247.408 C 356.35 247.413 356.407 247.413 356.465 247.408 L 356.95 247.305 C 357.374 247.227 357.984 247.041 358.796 246.922 C 361.08 246.512 363.394 246.296 365.718 246.282 C 369.16 246.221 372.597 246.55 375.957 247.267 C 380.089 248.081 384.031 249.624 387.581 251.819 C 391.065 254.111 394.066 257.022 396.43 260.392 C 398.367 263.138 399.884 266.139 400.934 269.306 C 401.643 271.438 402.125 273.636 402.371 275.864 C 402.497 276.652 402.491 277.272 402.537 277.686 L 402.576 278.159 C 402.569 278.215 402.569 278.27 402.576 278.325 C 402.586 278.27 402.586 278.215 402.576 278.159 L 402.576 277.686 C 402.576 277.264 402.576 276.644 402.479 275.851 C 402.283 273.605 401.839 271.388 401.154 269.235 C 400.126 266.034 398.62 262.999 396.683 260.218 C 394.32 256.776 391.293 253.806 387.767 251.467 C 384.186 249.247 380.204 247.694 376.03 246.888 C 372.64 246.186 369.178 245.878 365.711 245.968 C 363.378 246.015 361.054 246.274 358.771 246.742 C 357.956 246.883 357.354 247.094 356.93 247.19 L 356.453 247.325 L 356.292 247.408 Z" fill="#F5F5F5" style=""/>
</svg>
