<svg width="26" height="26" viewBox="0 0 26 26" fill="none" xmlns="http://www.w3.org/2000/svg">
<path d="M24.7197 6.05441L20.4384 1.75766C19.8797 1.23091 19.1475 0.928663 18.3811 0.908424C17.6148 0.888184 16.8677 1.15136 16.2821 1.64789L2.21948 15.7613C1.71442 16.2725 1.39994 16.9425 1.32884 17.6588L0.656958 24.198C0.635909 24.4277 0.665605 24.6592 0.743929 24.8761C0.822254 25.0929 0.947277 25.2897 1.11009 25.4525C1.25609 25.5979 1.42924 25.7129 1.61961 25.7909C1.80999 25.8689 2.01384 25.9085 2.21948 25.9073H2.3601L8.8758 25.3114C9.58955 25.2401 10.2571 24.9244 10.7664 24.4176L24.8291 10.3041C25.3749 9.72542 25.6699 8.95317 25.6494 8.15659C25.6289 7.36 25.2946 6.60406 24.7197 6.05441V6.05441ZM8.59455 22.1751L3.90699 22.6142L4.32887 17.9097L13.1571 9.15937L17.3759 13.3934L8.59455 22.1751ZM19.4072 11.2921L15.2196 7.0894L18.2665 3.95308L22.5322 8.23415L19.4072 11.2921Z" fill="black" fill-opacity="0.25"/>
</svg>
