<svg xmlns="http://www.w3.org/2000/svg" width="33" height="33" viewBox="0 0 33 33">
  <g id="Notifications" transform="translate(-255 -827)">
    <g id="Base" transform="translate(255 827)" fill="none">
      <path d="M16.5,0l4.125,12.272L33,12.6l-9.826,7.917L26.7,33,16.5,25.621,6.3,33,9.826,20.522,0,12.6l12.375-.333Z" stroke="none"/>
      <path d="M 16.5 3.138656616210938 L 13.32288932800293 12.59081077575684 L 13.10029029846191 13.25305938720703 L 12.40187072753906 13.2718391418457 L 2.743732452392578 13.5314826965332 L 10.45305061340332 19.7435188293457 L 10.96751976013184 20.1580696105957 L 10.78797912597656 20.79391860961914 L 8.046367645263672 30.50373268127441 L 15.91377067565918 24.81082916259766 L 16.5 24.38663864135742 L 17.08623123168945 24.81082916259766 L 24.95363235473633 30.50373268127441 L 22.21202087402344 20.79391860961914 L 22.03248023986816 20.1580696105957 L 22.54695129394531 19.7435188293457 L 30.25627136230469 13.53148078918457 L 20.59812927246094 13.27182960510254 L 19.89970970153809 13.25304985046387 L 19.67710876464844 12.59079933166504 L 16.5 3.138656616210938 M 16.5 0 L 20.625 12.27219009399414 L 33 12.60487937927246 L 23.17438888549805 20.52219009399414 L 26.69755935668945 33 L 16.5 25.62097930908203 L 6.302440643310547 33 L 9.82560920715332 20.52219009399414 L 0 12.60487937927246 L 12.375 12.2721996307373 L 16.5 0 Z" stroke="none" fill="#707070"/>
    </g>
    <circle id="Presence" cx="5" cy="5" r="5" transform="translate(275 828)" fill="#ff8f8f"/>
    <text id="Number" transform="translate(278 836)" fill="#707070" font-size="7" font-family="SegoeUI, Segoe UI"><tspan x="0" y="0">5</tspan></text>
  </g>
</svg>
