<svg xmlns="http://www.w3.org/2000/svg" width="24" height="32" viewBox="0 0 24 32">
  <g id="Personal" transform="translate(-42 -831)">
    <g id="Body" transform="translate(42 843)" fill="none">
      <path d="M8.57,5.717a4,4,0,0,1,6.86,0l4.935,8.225A4,4,0,0,1,16.935,20H7.065a4,4,0,0,1-3.43-6.058Z" stroke="none"/>
      <path d="M 12.00000095367432 4.774600982666016 C 10.93641090393066 4.774600982666016 9.974730491638184 5.319091796875 9.427520751953125 6.231121063232422 L 4.492280960083008 14.45652103424072 C 3.928850173950195 15.39557075500488 3.914600372314453 16.52513122558594 4.454160690307617 17.47809219360352 C 4.993721008300781 18.43106079101563 5.969650268554688 19 7.064760208129883 19 L 16.93524169921875 19 C 18.03035163879395 19 19.00628089904785 18.43106079101563 19.54584121704102 17.47809219360352 C 20.08540153503418 16.52513122558594 20.07115173339844 15.39557075500488 19.50772094726563 14.45652103424072 L 14.57248115539551 6.231121063232422 C 14.02526092529297 5.319091796875 13.06359100341797 4.774600982666016 12.00000095367432 4.774600982666016 M 12.00000095367432 3.774600982666016 C 13.32658386230469 3.774600982666016 14.65316581726074 4.421941757202148 15.42997074127197 5.716621398925781 L 20.36521148681641 13.94202136993408 C 21.96487045288086 16.60811042785645 20.04442024230957 20 16.93524169921875 20 L 7.064760208129883 20 C 3.955581665039063 20 2.035131454467773 16.60811042785645 3.634790420532227 13.94202136993408 L 8.57003116607666 5.716621398925781 C 9.346836090087891 4.421941757202148 10.67341804504395 3.774600982666016 12.00000095367432 3.774600982666016 Z" stroke="none" fill="#707070"/>
    </g>
    <g id="Head" transform="translate(46 831)" fill="none" stroke="#707070" stroke-width="1">
      <circle cx="8" cy="8" r="8" stroke="none"/>
      <circle cx="8" cy="8" r="7.5" fill="none"/>
    </g>
  </g>
</svg>
