<svg xmlns="http://www.w3.org/2000/svg" viewBox="0 0 750 500"><g id="freepik--background-complete--inject-34"><path d="M280.3,172.09l-61.81,2.53.35-3.29s5.13.08,5.89-.56,4.29-6.5,5.36-6.14,51.42,5.18,51.42,5.18Z" style="fill:#f5f5f5"></path><path d="M209.34,170.79a5.68,5.68,0,1,1,2.35,7.68A5.67,5.67,0,0,1,209.34,170.79Z" style="fill:#f5f5f5"></path><path d="M214.08,177.93l-2.6,4.88s2.34,8.05,2.12,8.47-28.69,41.47-28.69,41.47l-2.65-1.41,29.17-54.82Z" style="fill:#f5f5f5"></path><polygon points="213.8 169.37 210.7 170.48 207.54 165.32 198.71 164.09 178.36 117.22 180.29 115.95 213.8 169.37" style="fill:#f5f5f5"></polygon><polygon points="212.45 173.11 210.97 287.71 222.33 287.71 219.06 175.54 212.45 173.11" style="fill:#f5f5f5"></polygon><path d="M37.69,177.7l72.06-42.2,1.67,4.13s-6.16,3.16-6.66,4.41-1,10.47-2.49,10.72-64.58,26.43-64.58,26.43Z" style="fill:#e0e0e0"></path><path d="M123.08,134.26a7.67,7.67,0,1,1-7.66-7.67A7.66,7.66,0,0,1,123.08,134.26Z" style="fill:#e0e0e0"></path><path d="M112.92,128.75v-7.46s-7.9-8.11-7.9-8.75,7.9-67.62,7.9-67.62h4v83.83Z" style="fill:#e0e0e0"></path><polygon points="118.67 138.78 121.66 135.5 128.7 139.63 140.01 135.5 193.98 178.46 192.49 181.19 118.67 138.78" style="fill:#e0e0e0"></polygon><polygon points="109.75 135.5 107.75 290.21 123.08 290.21 118.67 138.78 109.75 135.5" style="fill:#e0e0e0"></polygon><path d="M634.43,223.62l-33.33-52.1,3-1.37s2.52,4.48,3.45,4.81,7.78.43,8,1.53,21.44,47,21.44,47Z" style="fill:#e0e0e0"></path><path d="M594.76,163.46a5.67,5.67,0,1,1,2.34,7.68A5.68,5.68,0,0,1,594.76,163.46Z" style="fill:#e0e0e0"></path><path d="M596,169.37l-5.53.21s-5.77,6.08-6.24,6.1S534,171.8,534,171.8l-.12-3,62-2.43Z" style="fill:#e0e0e0"></path><polygon points="603.27 164.81 600.76 162.7 603.61 157.37 600.22 149.12 630.45 107.92 632.52 108.95 603.27 164.81" style="fill:#e0e0e0"></polygon><polygon points="597.86 165.77 596.39 280.37 607.75 280.37 604.48 168.2 597.86 165.77" style="fill:#e0e0e0"></polygon><path d="M735.84,302.62c-12.61-12.62-30.91-17.7-48.63-19.78s-35.77-1.7-53.17-5.66c-42.88-9.78-75.7-44.32-116.44-60.92a149,149,0,0,0-107.06-1.63c-26.74,10-51.76,27.92-80.29,27.61-21.57-.24-43.12-11.13-64-5.7-19,4.94-32.06,22-48.73,32.43-27.94,17.42-63.34,14.78-96.23,13.42s-69.54.62-92.8,23.91Z" style="fill:#ebebeb"></path><path d="M237.15,99H342.67s-9.33-17-36.49-14.5c-25.94,2.36-27.26-8.36-40.45-9.68S241.55,83.6,237.15,99Z" style="fill:#f5f5f5"></path><path d="M320.92,138.8H408.2s-7.72-14-30.18-12c-21.46,2-22.55-6.91-33.46-8S324.55,126.07,320.92,138.8Z" style="fill:#ebebeb"></path><path d="M475.4,100.74H596.14s-10.67-19.43-41.75-16.6c-29.68,2.7-31.19-9.56-46.29-11.07S480.44,83.13,475.4,100.74Z" style="fill:#ebebeb"></path></g><g id="freepik--Floor--inject-34"><path d="M714.31,429.26c0,.14-145.27.26-324.42.26s-324.46-.12-324.46-.26S210.67,429,389.89,429,714.31,429.11,714.31,429.26Z" style="fill:#263238"></path></g><g id="freepik--Car--inject-34"><rect x="85.58" y="332.06" width="443.45" height="65.63" transform="translate(614.04 730.22) rotate(-179.91)" style="fill:#455a64"></rect><path d="M552.17,284.05s-11.09,1.24-13.06,0c-4.46-2.87-101.52-42-184.92-42.09-66.89-.09-127.12,17.65-185.7,56.76,0,0-71.34,7.86-99.2,28.74-6.51,3.78-19.8,18.68-14.73,52.52,3.23,21.58,19.3,22.49,41.25,22,0,0-8.17-65.55,50.25-60.54,49.64,4.25,40.14,64.85,40.14,64.85l248.73.39s1.09-26.92,2.15-33.44c2.11-13.06,18.34-34.46,48.64-31.28,33.24,3.49,44.3,33.82,42.17,59.42,0,0,35.07,7.58,39.81-20.63l8.37-2.6s3.22-58.52-26-83.12l6.27-4.17Z" style="fill:#525165"></path><path d="M535.63,282.18s-2.07,5.64-9.2,5c-5.81-.51-39-13.09-51.1-17.73a11.73,11.73,0,0,1-7.23-7.74,4.52,4.52,0,0,1-.16-2.31S519.54,271.8,535.63,282.18Z" style="fill:#455a64"></path><path d="M250.72,257.67h0A12.61,12.61,0,0,1,243.54,269l-71,33.83-4.06-4.37s7.42-5.34,17.12-11.11c9-5.33,20-11,26.57-14.2A288.53,288.53,0,0,1,250.72,257.67Z" style="fill:#455a64"></path><g style="opacity:0.30000000000000004"><path d="M486.44,287.19a4.37,4.37,0,0,1,0,6.64c-3.52,3.59-20.29,16.06-28.08,16.82S214,327.2,200,323.19,177.8,312.08,181.32,308l6.35-2.1,111.52,2.28Z" style="fill:#fff"></path></g><g style="opacity:0.7000000000000001"><path d="M572.49,337.49s-13.77,4.08-19.65-6.78-12.36-22.34-12.36-24.82c0-3.11,2.23-13.11,9.59-11.08C550.07,294.81,570.54,311.12,572.49,337.49Z" style="fill:#fff"></path></g><g style="opacity:0.7000000000000001"><path d="M63.23,348.63s53.32-21.33,44.69-28.6c-4.55-3.84-48.39,17.28-44.69,28.6" style="fill:#fff"></path></g><path d="M85,401.79s0-.18,0-.53-.06-.88-.07-1.58c0-1.38-.06-3.41,0-6a97.58,97.58,0,0,1,3.4-21.93A70.05,70.05,0,0,1,94,357.46a49.72,49.72,0,0,1,10.8-13.88l1.77-1.55,1.91-1.41a47.12,47.12,0,0,1,4.06-2.64c.69-.43,1.45-.75,2.18-1.13s1.46-.77,2.24-1.08l2.33-.92,1.18-.46,1.21-.37a45,45,0,0,1,5-1.31l2.54-.53c.86-.13,1.73-.22,2.59-.34s1.74-.23,2.62-.32l2.64-.13a45.36,45.36,0,0,1,5.35-.12,56.48,56.48,0,0,1,20.5,3.8,44.37,44.37,0,0,1,16,10.92,54.82,54.82,0,0,1,9.62,14.73,76.15,76.15,0,0,1,4.83,14.57,106.28,106.28,0,0,1,2.52,22c0,2.63-.07,4.67-.15,6.05,0,.68-.09,1.21-.13,1.56s-.08.53-.08.53,0-.18,0-.53,0-.9.07-1.57c.06-1.38.1-3.41,0-6a108.18,108.18,0,0,0-2.67-22,76.72,76.72,0,0,0-4.86-14.47,54.37,54.37,0,0,0-9.58-14.58,43.79,43.79,0,0,0-15.88-10.77,56,56,0,0,0-20.32-3.76,66,66,0,0,0-20.52,2.72l-1.21.36-1.16.46-2.31.9c-.77.31-1.48.72-2.21,1.07s-1.48.69-2.16,1.12a44.53,44.53,0,0,0-4,2.59l-1.9,1.4-1.75,1.53a49.49,49.49,0,0,0-10.74,13.73,69.5,69.5,0,0,0-5.73,14.14,99.76,99.76,0,0,0-3.56,21.84c-.13,2.62-.15,4.65-.14,6l0,1.57C85,401.61,85,401.79,85,401.79Z" style="fill:#263238"></path><path d="M426.55,406.45s0-.18-.07-.53-.07-.86-.11-1.54c-.09-1.36-.17-3.38-.15-6a103.67,103.67,0,0,1,2.41-21.79,75.58,75.58,0,0,1,4.7-14.41,52.91,52.91,0,0,1,9.53-14.53,43.09,43.09,0,0,1,15.84-10.75A57.14,57.14,0,0,1,479,333.15a66.26,66.26,0,0,1,20.48,2.39c.4.12.81.21,1.2.34l1.17.43,2.33.87c1.52.6,3,1.38,4.42,2.06,1.37.84,2.78,1.6,4.07,2.51l1.89,1.39c.31.23.64.45.93.7l.87.77a48.64,48.64,0,0,1,10.84,13.57,65.4,65.4,0,0,1,5.54,14.11,89.48,89.48,0,0,1,3,21.7c.05,2.59,0,4.61-.11,6,0,.68-.08,1.2-.12,1.55s-.08.52-.08.52a2.65,2.65,0,0,1,0-.53c0-.37,0-.88.08-1.55,0-1.36.09-3.37,0-5.95a92.28,92.28,0,0,0-3.13-21.62,66.39,66.39,0,0,0-5.57-14A48.28,48.28,0,0,0,516,345l-.86-.76c-.3-.24-.62-.45-.92-.69l-1.88-1.37c-1.27-.89-2.67-1.64-4-2.47-1.45-.67-2.87-1.44-4.38-2l-2.3-.85-1.16-.42c-.39-.14-.8-.23-1.2-.34A65.7,65.7,0,0,0,479,333.68a56.71,56.71,0,0,0-20.08,3.72A42.69,42.69,0,0,0,443.21,348a52.69,52.69,0,0,0-9.49,14.38A77,77,0,0,0,429,376.7a107.73,107.73,0,0,0-2.56,21.71c-.05,2.59,0,4.6.05,6,0,.67,0,1.18.07,1.55S426.55,406.45,426.55,406.45Z" style="fill:#263238"></path><path d="M484.1,287.18s-20.68,18-29.64,18-245.11,14.32-255.62,10.07a107.66,107.66,0,0,1-16-7.72s77.06-55.5,166.86-52.84C415.62,256.64,484.1,287.18,484.1,287.18Z" style="fill:#455a64"></path><polygon points="230.54 281.03 214.94 316.03 207.02 316.02 219.91 286.06 230.54 281.03" style="fill:#263238"></polygon><g style="opacity:0.30000000000000004"><path d="M399.4,325.41h28a0,0,0,0,1,0,0V331a1.27,1.27,0,0,1-1.27,1.27H400.67A1.27,1.27,0,0,1,399.4,331v-5.54A0,0,0,0,1,399.4,325.41Z" transform="translate(826.29 658.27) rotate(-179.91)"></path></g><g style="opacity:0.30000000000000004"><path d="M290.28,325.24h28a0,0,0,0,1,0,0v5.54a1.27,1.27,0,0,1-1.27,1.27H291.54a1.27,1.27,0,0,1-1.27-1.27v-5.54a0,0,0,0,1,0,0Z" transform="translate(608.04 657.76) rotate(-179.91)"></path></g><polygon points="415.2 264.31 439.65 305.86 416.87 307.08 419.81 287.09 404.85 261.91 415.2 264.31" style="fill:#263238"></polygon><polygon points="326.06 255.28 322.25 312.04 330.56 311.63 334.15 254.77 326.06 255.28" style="fill:#263238"></polygon><path d="M219.64,324.61l3.55-3.67-5.65-7.19-4.86,4.65a3.59,3.59,0,0,0-1.25,2.44C210.75,325.31,216.5,327.85,219.64,324.61Z" style="fill:#263238"></path><path d="M234,323.26c8.63.29,15.42-8.51,11.83-16.37a6,6,0,0,0-4.53-3.73c-9-1.57-20.65-2.15-23.79,10.59-.92,3.77,1.19,6.1,4.64,7.51C225.43,322.6,229.86,323.11,234,323.26Z" style="fill:#525165"></path><circle cx="139.61" cy="388.47" r="39.57" transform="translate(-257.57 500.93) rotate(-86.04)" style="fill:#263238"></circle><path d="M139.65,362.11a26.36,26.36,0,1,0,26.29,26.41A26.35,26.35,0,0,0,139.65,362.11ZM118.5,388.45a21.11,21.11,0,1,1,21.08,21.14A21.15,21.15,0,0,1,118.5,388.45Z" style="fill:#e0e0e0"></path><path d="M139.64,367.33a21.13,21.13,0,1,0,21.08,21.18A21.15,21.15,0,0,0,139.64,367.33Z" style="fill:#f5f5f5"></path><path d="M133.37,388.54a6.24,6.24,0,1,0,6.25-6.23A6.24,6.24,0,0,0,133.37,388.54Z" style="fill:#263238"></path><circle cx="480.07" cy="389.89" r="39.57" transform="translate(-135.08 453.65) rotate(-45)" style="fill:#263238"></circle><path d="M480.11,363.52a26.36,26.36,0,1,0,26.29,26.42A26.36,26.36,0,0,0,480.11,363.52ZM459,389.87A21.11,21.11,0,1,1,480,411,21.14,21.14,0,0,1,459,389.87Z" style="fill:#e0e0e0"></path><path d="M480.1,368.75a21.13,21.13,0,1,0,21.07,21.18A21.14,21.14,0,0,0,480.1,368.75Z" style="fill:#f5f5f5"></path><path d="M473.83,390a6.24,6.24,0,1,0,6.24-6.23A6.24,6.24,0,0,0,473.83,390Z" style="fill:#263238"></path><path d="M498.81,315.54a6.15,6.15,0,1,1-6.06-6.23A6.15,6.15,0,0,1,498.81,315.54Z" style="fill:#263238"></path><path d="M426.4,392.5l-.59,0-1.75,0-6.72.13-24.7.4-81.51,1c-31.84.33-60.67.54-81.53.57-10.43,0-18.88,0-24.71-.1s-9.08-.23-9-.42a12.22,12.22,0,0,0,2.32.15c1.53,0,3.8.06,6.71.07,5.83,0,14.28,0,24.71-.06l81.52-.74,81.51-.86,24.71-.23,6.72,0h1.75Z" style="fill:#263238"></path><path d="M325.51,406.26c-.15,0,0-21,.41-46.86s.8-46.87.94-46.86,0,21-.42,46.86S325.65,406.26,325.51,406.26Z" style="fill:#263238"></path><path d="M380.38,271.25c.09.11-6.36,6-14.41,13.16s-14.65,12.87-14.75,12.76,6.36-6,14.41-13.15S380.28,271.15,380.38,271.25Z" style="fill:#f5f5f5"></path><path d="M377.21,282.59a9.59,9.59,0,0,1-1,1c-.66.63-1.63,1.52-2.85,2.6-2.43,2.18-5.83,5.12-9.67,8.28s-7.39,5.94-10,7.91c-1.3,1-2.36,1.76-3.1,2.29a7.6,7.6,0,0,1-1.19.78,7.81,7.81,0,0,1,1.06-.94l3-2.42c2.54-2,6-4.86,9.89-8s7.27-6.06,9.76-8.16l3-2.47A6.55,6.55,0,0,1,377.21,282.59Z" style="fill:#f5f5f5"></path><path d="M295.85,272.5c.08.12-9.33,6.68-21,14.66s-21.23,14.35-21.31,14.23,9.32-6.68,21-14.66S295.77,272.38,295.85,272.5Z" style="fill:#f5f5f5"></path><path d="M304.61,272.1a8.82,8.82,0,0,1-1.21,1L300,275.72l-11.23,8.62-11.13,8.75-3.37,2.66a8.78,8.78,0,0,1-1.28.92,9.5,9.5,0,0,1,1.15-1.08c.76-.67,1.88-1.62,3.27-2.79,2.78-2.32,6.67-5.48,11-8.87s8.39-6.39,11.33-8.51c1.47-1.06,2.67-1.9,3.51-2.47A8.8,8.8,0,0,1,304.61,272.1Z" style="fill:#f5f5f5"></path><path d="M163.42,300.87a1,1,0,0,1-.28.06l-.8.12-3.1.42c-2.69.37-6.58.92-11.36,1.74A295.89,295.89,0,0,0,111,312c-7.08,2.18-13.73,4.53-19.71,6.86a128.23,128.23,0,0,0-15.54,6.94,44.88,44.88,0,0,0-9.3,6.65c-.51.45-.92.89-1.28,1.26s-.67.7-.9,1l-.55.6a2,2,0,0,1-.19.2s0-.09.15-.23l.51-.64c.22-.28.5-.62.86-1s.76-.84,1.26-1.31a43.27,43.27,0,0,1,9.26-6.82,123.06,123.06,0,0,1,15.55-7.06c6-2.36,12.64-4.74,19.73-6.91a277,277,0,0,1,36.95-8.66c4.8-.77,8.7-1.27,11.4-1.58l3.11-.32.81-.07A.86.86,0,0,1,163.42,300.87Z" style="fill:#f5f5f5"></path><path d="M412.48,248.79l-.41,0-1.21-.2-4.62-.8c-4-.68-9.84-1.6-17.07-2.47a289.56,289.56,0,0,0-56.78-1.44c-22.17,1.74-41.89,6.16-56,9.62-7.07,1.76-12.76,3.29-16.69,4.37l-4.53,1.23-1.18.31a2,2,0,0,1-.41.09,2,2,0,0,1,.4-.14l1.16-.36,4.5-1.33c3.92-1.14,9.6-2.73,16.66-4.53,14.12-3.55,33.85-8,56.07-9.78a281.22,281.22,0,0,1,56.86,1.59c7.24.92,13.06,1.9,17.07,2.64,2,.36,3.55.69,4.6.89l1.2.25A1.86,1.86,0,0,1,412.48,248.79Z" style="fill:#f5f5f5"></path><path d="M244.61,306a7.78,7.78,0,0,1-1.31-.13c-.83-.1-2-.25-3.53-.32a35.23,35.23,0,0,0-11.56,1.23,17.8,17.8,0,0,0-5.68,2.84,13.07,13.07,0,0,0-3.4,3.89,12.78,12.78,0,0,0-1.48,4.56s0-.12,0-.34a6.52,6.52,0,0,1,.06-1,10.44,10.44,0,0,1,1.12-3.42,13,13,0,0,1,3.43-4.09,17.79,17.79,0,0,1,5.83-3,33.06,33.06,0,0,1,11.73-1.1,29.48,29.48,0,0,1,3.55.49A6.06,6.06,0,0,1,244.61,306Z" style="fill:#f5f5f5"></path><path d="M317.92,319.57c0,.15-14.54,1.13-32.49,2.2s-32.51,1.82-32.52,1.68,14.53-1.13,32.49-2.2S317.91,319.43,317.92,319.57Z" style="fill:#f5f5f5"></path><path d="M154.32,331.65a1.19,1.19,0,0,1-.26,0l-.73-.16c-.64-.12-1.56-.41-2.79-.6a59.49,59.49,0,0,0-10.45-1,66.12,66.12,0,0,0-15.46,1.54,51.73,51.73,0,0,0-17.55,7.12,50.48,50.48,0,0,0-13.36,13.41,54.18,54.18,0,0,0-6.8,13.94,51.33,51.33,0,0,0-2.17,10.26c-.19,1.23-.18,2.2-.25,2.85l-.06.74a1.11,1.11,0,0,1,0,.26.76.76,0,0,1,0-.26v-.74c0-.66,0-1.63.15-2.87a49.08,49.08,0,0,1,2-10.35,53.67,53.67,0,0,1,6.75-14.1A50.32,50.32,0,0,1,106.8,338a51.48,51.48,0,0,1,17.72-7.16,65.63,65.63,0,0,1,15.58-1.44,56.08,56.08,0,0,1,10.48,1.21c1.23.22,2.14.55,2.78.7l.72.21Z" style="fill:#f5f5f5"></path></g><g id="freepik--Character--inject-34"><path d="M521.24,262.06l-12.29,26-6.6,4.1a3.15,3.15,0,0,0-1.7,1.41L498.53,299l6.37.86,1.3-2.72a6.42,6.42,0,0,0,7.16-2L532.13,266Z" style="fill:#ffbe9d"></path><path d="M497.67,297.75s4.13,9.6,5.36,9.25,1.69-1.11,1.4-1.81-2.63-5.6-2.63-5.6,2.39,4.61,3.21,4.72,1.62-.49,1.4-1.17-2-4.61-2-4.61,2,4.4,2.69,4.13,1.16,0,1.05-1-2.44-4.87-2.44-4.87l-6.9-.38Z" style="fill:#ffbe9d"></path><path d="M534.22,429.69l-.1,0c-3.9-.73-13.54-3.31-18.84-11.45-3.53-5.43-3.79-12.65-4-18.44-.8-22.42-2.26-78.38-2.68-95a7.2,7.2,0,0,0-14.39.19v10.17h-2V305a9.2,9.2,0,0,1,18.39-.25c.42,16.62,1.88,72.58,2.67,95,.2,5.55.45,12.45,3.68,17.42,3.37,5.18,9.88,9.12,17.44,10.56l52.64-.5c6.83-1.41,12-3.55,16.67-9.78,2.46-3.29,4.24-7.69,5.61-13.83,2.88-12.87,2.79-26.49,2.71-39.66a261.21,261.21,0,0,1,.84-28.21c.45-4.41,1.19-9,3.52-12.77,2.21-3.56,6.62-6.67,11.1-5l-.69,1.88c-3.26-1.19-6.86,1.21-8.71,4.21-2.11,3.4-2.8,7.74-3.23,11.92a259.17,259.17,0,0,0-.83,28c.08,13.28.17,27-2.75,40.11-1.44,6.43-3.33,11.06-6,14.58-5.06,6.78-10.62,9.07-18,10.57l-.19,0Z" style="fill:#263238"></path><path d="M505.62,294.7a44.29,44.29,0,0,0-1.25,8.48c0,.37,0,.81.32,1s.78-.35,1.06-.68c.51-.58,2.41-3.83,2.41-3.83a5.41,5.41,0,0,0,4.91-5.25" style="fill:#ffbe9d"></path><path d="M513.07,294.42a1.6,1.6,0,0,1,0,.59,5.11,5.11,0,0,1-.4,1.6,5.36,5.36,0,0,1-1.53,2,5.93,5.93,0,0,1-3,1.24l.15-.09c-.61,1-1.26,2.16-2,3.31-.12.17-.23.34-.37.51s-.25.3-.4.46a1.17,1.17,0,0,1-.59.38.66.66,0,0,1-.67-.4,2.57,2.57,0,0,1-.09-1.21c0-.37.05-.73.08-1.08a36.3,36.3,0,0,1,.5-3.7c.19-1.05.39-1.89.55-2.46a3.12,3.12,0,0,1,.29-.88,4.24,4.24,0,0,1-.14.91c-.1.59-.26,1.43-.41,2.47s-.31,2.3-.41,3.69c0,.35-.05.71-.07,1.07a2.35,2.35,0,0,0,.07,1c.06.12.17.2.23.18a1,1,0,0,0,.37-.27c.12-.13.25-.29.37-.44a5.66,5.66,0,0,0,.34-.47c.74-1.13,1.41-2.26,2-3.28l.05-.09h.1a5.6,5.6,0,0,0,2.8-1.11,5.41,5.41,0,0,0,1.52-1.86A8.82,8.82,0,0,0,513.07,294.42Z" style="fill:#eb996e"></path><path d="M588.25,422.75l1.29,5.42s8.87,11.52,11.61,11c1.79-.37-.41-3.38-3.79-12.12l-.71-3.62Z" style="fill:#525165"></path><path d="M601.51,437.43a.52.52,0,0,1-.07.16,1,1,0,0,1-.38.35,1.43,1.43,0,0,1-.79.17,2,2,0,0,1-1-.37,42.31,42.31,0,0,1-4.47-4.16,55.56,55.56,0,0,1-4-4.65c-.47-.62-.85-1.13-1.09-1.49l-.29-.42c-.06-.09-.09-.15-.08-.15l.11.13.31.4,1.13,1.46c1,1.22,2.36,2.87,4,4.6a49,49,0,0,0,4.41,4.18,1.64,1.64,0,0,0,1.69.24A1.23,1.23,0,0,0,601.51,437.43Z" style="fill:#263238"></path><path d="M600.25,433.72s-.28,0-.72,0a4.2,4.2,0,0,0-1.59.61,3.17,3.17,0,0,0-1.2,1.19c-.21.39-.27.66-.3.66a1.66,1.66,0,0,1,.19-.71,3,3,0,0,1,1.22-1.29,3.76,3.76,0,0,1,1.67-.58A1.56,1.56,0,0,1,600.25,433.72Z" style="fill:#263238"></path><path d="M591.86,431s.09-.39.16-1a4.12,4.12,0,0,0-.45-2.37,3.86,3.86,0,0,0-1.69-1.71,5.62,5.62,0,0,0-1-.35.86.86,0,0,1,.28,0,2.79,2.79,0,0,1,.73.23,3.73,3.73,0,0,1,1.8,1.74,4.08,4.08,0,0,1,.41,2.47,4.2,4.2,0,0,1-.18.74A.86.86,0,0,1,591.86,431Z" style="fill:#263238"></path><path d="M588.82,423.67a5.94,5.94,0,0,1,.49,1.7c.16,1,.33,1.72.29,1.74a6,6,0,0,1-.46-1.71C589,424.44,588.77,423.69,588.82,423.67Z" style="fill:#263238"></path><path d="M597.52,427.77c0,.05-.51,0-1.1.18s-1,.36-1.07.32a2,2,0,0,1,1-.49A2,2,0,0,1,597.52,427.77Z" style="fill:#263238"></path><path d="M597.7,428.7c0,.05-.43,0-.92.13s-.85.34-.88.3a1.31,1.31,0,0,1,.84-.47A1.37,1.37,0,0,1,597.7,428.7Z" style="fill:#263238"></path><path d="M598.41,429.86a5.31,5.31,0,0,0-1,0,4.65,4.65,0,0,0-.87.38,1.17,1.17,0,0,1,.83-.55A1.22,1.22,0,0,1,598.41,429.86Z" style="fill:#263238"></path><path d="M596.91,427.38a1.12,1.12,0,0,1-.3,0,6.33,6.33,0,0,1-.78-.21,6.89,6.89,0,0,1-1.11-.5c-.2-.11-.4-.23-.61-.37a.92.92,0,0,1-.44-.69.53.53,0,0,1,.68-.42,1.36,1.36,0,0,1,.61.42,10.35,10.35,0,0,1,.82.88c.22.27.38.49.49.65a1.06,1.06,0,0,1,.14.26s-.27-.32-.73-.83c-.22-.25-.5-.54-.83-.85a1.29,1.29,0,0,0-.54-.36c-.2-.05-.46.05-.47.26a.77.77,0,0,0,.37.54c.2.14.4.26.59.38a7.76,7.76,0,0,0,1.07.51C596.5,427.27,596.91,427.35,596.91,427.38Z" style="fill:#263238"></path><path d="M596.44,427.27a1.17,1.17,0,0,1,0-.27c0-.18,0-.43.06-.74a3.86,3.86,0,0,1,.28-1.07,2.31,2.31,0,0,1,.35-.57.59.59,0,0,1,.71-.22.68.68,0,0,1,.24.7,2.83,2.83,0,0,1-.19.64,3.31,3.31,0,0,1-.64.91,3.81,3.81,0,0,1-.56.48c-.14.1-.23.15-.24.14s.3-.25.71-.7a3.61,3.61,0,0,0,.58-.89,2.43,2.43,0,0,0,.17-.6.52.52,0,0,0-.16-.53c-.16-.1-.36,0-.5.19a2.55,2.55,0,0,0-.33.52,4.25,4.25,0,0,0-.3,1A7.77,7.77,0,0,1,596.44,427.27Z" style="fill:#263238"></path><g style="opacity:0.4"><path d="M589.54,428.17l-.62-2.6s2.17.4,2.73,2a6.75,6.75,0,0,1,.43,2.78l4.72,5.09s1.19-2.32,3.33-1.76c0,0,1.69,3.71,1.64,4.64s-1.14.82-1.52.65a19.4,19.4,0,0,1-4.23-3.34C593.52,433.06,590.75,429.77,589.54,428.17Z"></path></g><path d="M544.17,425.49l0-7.23,13.55-.16.17,10.57-.84.07c-3.73.25-19,1-21.51.29C532.69,428.22,544.17,425.49,544.17,425.49Z" style="fill:#525165"></path><g style="opacity:0.4"><path d="M552.93,428.63a4.7,4.7,0,0,1,1.69-2.91,4.54,4.54,0,0,1,3.16-1l.05,3.78Z"></path></g><g style="opacity:0.4"><path d="M538.56,427s-4,1.21-3.51,1.87,16,.46,22.79-.23l0-.3-18,.39S539.35,427.05,538.56,427Z"></path></g><path d="M558,428.36l-.23,0-.67.05-2.46.14c-2.08.1-4.95.2-8.13.24s-6,0-8.13,0l-2.46-.07-.67,0-.24,0H536l2.46,0c2.08,0,5,0,8.13,0s6-.13,8.12-.2l2.47-.09h.9Z" style="fill:#263238"></path><path d="M539.79,429a5.53,5.53,0,0,0-.48-1.17,6.25,6.25,0,0,0-.85-.94,1.85,1.85,0,0,1,1,.85A1.87,1.87,0,0,1,539.79,429Z" style="fill:#263238"></path><path d="M543.76,426.89s-.23-.21-.44-.52-.33-.58-.29-.6.23.2.43.51S543.8,426.86,543.76,426.89Z" style="fill:#263238"></path><path d="M544.85,426.29s-.25-.1-.48-.31-.41-.4-.38-.44.25.11.48.32S544.88,426.26,544.85,426.29Z" style="fill:#263238"></path><path d="M545.52,425a1.66,1.66,0,0,1-.7.1c-.39,0-.71,0-.71-.07s.31-.09.7-.1S545.52,425,545.52,425Z" style="fill:#263238"></path><path d="M545.75,424.1a2,2,0,0,1-1.6.14,5.61,5.61,0,0,1,.8-.06A4.89,4.89,0,0,1,545.75,424.1Z" style="fill:#263238"></path><path d="M543.28,425.71a2.62,2.62,0,0,1-.87,0,4.9,4.9,0,0,1-.93-.2,2.09,2.09,0,0,1-.53-.21.45.45,0,0,1-.22-.26.33.33,0,0,1,.13-.35,1.59,1.59,0,0,1,2,.44,1.6,1.6,0,0,1,.29.57c0,.15,0,.24,0,.24a2.43,2.43,0,0,0-.4-.74,1.56,1.56,0,0,0-.75-.47,1.34,1.34,0,0,0-1,.08c-.13.11-.08.27.08.36a2.65,2.65,0,0,0,.49.2,5.55,5.55,0,0,0,.9.22C543,425.69,543.28,425.68,543.28,425.71Z" style="fill:#263238"></path><path d="M543.06,425.76a.85.85,0,0,1-.11-.61,1.43,1.43,0,0,1,.23-.63.86.86,0,0,1,.72-.46.35.35,0,0,1,.27.4.9.9,0,0,1-.14.39,2.38,2.38,0,0,1-.41.53c-.27.27-.48.38-.49.36s.17-.16.41-.43a3.47,3.47,0,0,0,.36-.53c.11-.19.19-.52,0-.56s-.44.21-.57.38a1.7,1.7,0,0,0-.24.57A3.11,3.11,0,0,0,543.06,425.76Z" style="fill:#263238"></path><path d="M557.71,424.66s-.39,0-1,0a4.36,4.36,0,0,0-2.18.92,4.51,4.51,0,0,0-1.34,1.95c-.19.58-.21,1-.24,1a.64.64,0,0,1,0-.27,4,4,0,0,1,.13-.74,4.17,4.17,0,0,1,1.35-2,4.22,4.22,0,0,1,2.26-.92,4.4,4.4,0,0,1,.75,0A.75.75,0,0,1,557.71,424.66Z" style="fill:#263238"></path><path d="M556.23,419a23.05,23.05,0,0,1,.15,2.78,22.61,22.61,0,0,1,0,2.79,26.13,26.13,0,0,1-.15-2.79A25,25,0,0,1,556.23,419Z" style="fill:#263238"></path><path d="M551.21,427.33a7.82,7.82,0,0,1-2,.22,7.71,7.71,0,0,1-2-.13c0-.05.89,0,2,0S551.2,427.28,551.21,427.33Z" style="fill:#263238"></path><path d="M553.86,427.29s-.07.19-.15.39-.14.39-.19.39-.07-.22,0-.45S553.83,427.26,553.86,427.29Z" style="fill:#263238"></path><path d="M554.85,426s-.06.18-.19.32-.28.24-.31.2,0-.17.19-.31S554.82,426,554.85,426Z" style="fill:#263238"></path><path d="M556.27,425.45s-.19,0-.38.12-.34.18-.38.15.07-.22.32-.31S556.29,425.4,556.27,425.45Z" style="fill:#263238"></path><path d="M557.29,425.16s-.06.12-.17.16-.22.05-.24,0,.06-.12.17-.16S557.27,425.12,557.29,425.16Z" style="fill:#263238"></path><polygon points="600 423.81 575.86 281.87 538.62 287.54 542.94 422.75 560.18 424.22 558.86 305.19 585.39 424.35 600 423.81" style="fill:#455a64"></polygon><path d="M579.62,292.46l-4.94-41.86,7.47,11.67,11.94-10.33-14-18.87h0a23.52,23.52,0,0,0-9.17-5.94,19,19,0,0,0-5.75-1.1h0a23.07,23.07,0,0,1-13.88,0c-.79.09-2,.2-3.58.42a20.21,20.21,0,0,0-13.55,8l-14.37,27.59,12.31,4.66L538.62,255l-1.21,38.84L549,296.38l8.84-6.39,12.2,6.39Z" style="fill:#263238"></path><path d="M539.26,240.35c.13,0,0,6.47-.29,14.43s-.65,14.42-.79,14.41,0-6.46.3-14.43S539.13,240.35,539.26,240.35Z" style="fill:#455a64"></path><path d="M573.84,242.9a70,70,0,0,1,1,8.35,73.35,73.35,0,0,1,.57,8.39,72.58,72.58,0,0,1-1.05-8.35A73.47,73.47,0,0,1,573.84,242.9Z" style="fill:#455a64"></path><path d="M554.45,190.73a21.73,21.73,0,0,1,5.82-.8,7.35,7.35,0,0,1,5.28,2.25,19,19,0,0,0,2.24,2.85c1.19.94,3.08,1.25,3.48,2.71s-1.18,2.89-1.07,4.44a5,5,0,0,0,1.16,2.35A2.85,2.85,0,0,1,572,207c-.25.67-.92,1.1-1.25,1.74-.51,1-.1,2.17-.26,3.26a4.26,4.26,0,0,1-3.26,3.22,12.66,12.66,0,0,1-4.83,0" style="fill:#263238"></path><path d="M553,191.41a9.61,9.61,0,0,0-4-.19,3.45,3.45,0,0,0-2.73,2.62c-.12.82.14,1.74-.32,2.43s-1.68.82-2.28,1.54c-1.27,1.52,1.18,4.17-.1,5.69-.34.41-.88.61-1.26,1a2.06,2.06,0,0,0-.08,2.53,3.11,3.11,0,0,0,2.38,1.19,6.7,6.7,0,0,0,2.68-.52,12.42,12.42,0,0,0,7-5.81,8.18,8.18,0,0,0-.75-8.74" style="fill:#263238"></path><path d="M565.34,201.72,565.7,228l-13.17.27c-.23-1.52-.72-7.43-.72-7.43s-5.52-.3-6.13-5.73c-.3-2.64-.47-8.13-.56-13.09a10.11,10.11,0,0,1,9.69-10.3h0A10.12,10.12,0,0,1,565.34,201.72Z" style="fill:#ffbe9d"></path><path d="M551.8,220.79a12.66,12.66,0,0,0,6.88-2.72s-1.28,4.08-6.75,4.13Z" style="fill:#eb996e"></path><path d="M547.59,205.22a.78.78,0,0,0,.83.71.75.75,0,0,0,.73-.78.79.79,0,0,0-.83-.71A.74.74,0,0,0,547.59,205.22Z" style="fill:#263238"></path><path d="M546.55,204.68c.11.09.65-.41,1.49-.49s1.49.28,1.57.17-.08-.23-.36-.39a2.17,2.17,0,0,0-1.27-.26,2.09,2.09,0,0,0-1.17.51C546.57,204.44,546.5,204.64,546.55,204.68Z" style="fill:#263238"></path><path d="M556,204.72a.78.78,0,0,0,.83.71.74.74,0,0,0,.73-.78.79.79,0,0,0-.83-.71A.75.75,0,0,0,556,204.72Z" style="fill:#263238"></path><path d="M554.78,204c.11.09.65-.4,1.49-.48s1.49.27,1.57.16-.08-.22-.37-.39a2.12,2.12,0,0,0-1.26-.26,2.16,2.16,0,0,0-1.18.51C554.8,203.78,554.73,204,554.78,204Z" style="fill:#263238"></path><path d="M552.37,210.51a5.21,5.21,0,0,0-1.38-.11c-.22,0-.42,0-.47-.16a1.06,1.06,0,0,1,.08-.65c.14-.54.3-1.1.46-1.69a26.69,26.69,0,0,0,1-4.39,30.32,30.32,0,0,0-1.34,4.3c-.15.59-.3,1.16-.44,1.7a1.21,1.21,0,0,0,0,.84.51.51,0,0,0,.38.28,1.56,1.56,0,0,0,.36,0A5.24,5.24,0,0,0,552.37,210.51Z" style="fill:#263238"></path><path d="M554.89,210.84c-.14,0,0,.91-.76,1.63s-1.69.72-1.68.85.23.16.64.13a2.32,2.32,0,0,0,1.41-.66,2,2,0,0,0,.58-1.36C555.07,211,555,210.83,554.89,210.84Z" style="fill:#263238"></path><path d="M554.24,200.76c.1.22.92,0,1.92,0s1.81.21,1.92,0-.11-.31-.45-.5a3.37,3.37,0,0,0-1.46-.35,3.13,3.13,0,0,0-1.47.33C554.35,200.46,554.19,200.65,554.24,200.76Z" style="fill:#263238"></path><path d="M546.62,202.23c.16.17.72-.08,1.41-.16s1.29,0,1.41-.21-.07-.29-.34-.44a2.08,2.08,0,0,0-2.27.3C546.6,201.94,546.54,202.14,546.62,202.23Z" style="fill:#263238"></path><path d="M563.91,206c.09,0,3.63-1.48,3.88,2.25s-3.54,3.21-3.55,3.11S563.91,206,563.91,206Z" style="fill:#ffbe9d"></path><path d="M565.28,209.85s.07,0,.18.08a.7.7,0,0,0,.49,0,1.62,1.62,0,0,0,.64-1.5,2.08,2.08,0,0,0-.24-.91c-.14-.27-.32-.45-.53-.47a.33.33,0,0,0-.37.21c0,.1,0,.18,0,.18s-.08,0-.07-.21a.47.47,0,0,1,.14-.24.45.45,0,0,1,.35-.12.94.94,0,0,1,.72.53,2.25,2.25,0,0,1,.29,1,1.68,1.68,0,0,1-.84,1.68.69.69,0,0,1-.6-.06C565.29,209.94,565.27,209.85,565.28,209.85Z" style="fill:#eb996e"></path><path d="M551.27,192a5.69,5.69,0,0,1,1.59-1.44,5.27,5.27,0,0,1,2.36-.7,13.62,13.62,0,0,1,5,.46,6.48,6.48,0,0,1,3.84,3c.6,1.16.77,2.58,1.7,3.51.75.74,1.93,1.09,2.36,2.06.76,1.72-1.52,3.69-.78,5.42a2.67,2.67,0,0,1,.36.92,1,1,0,0,1-.66.91,3.05,3.05,0,0,1-1.17.17c-1.4,0-3.11-.17-3.7-1.45s.18-2.74-.62-3.75-1.86-.53-2.82-1.09a5.51,5.51,0,0,1-1.12-.85,7.43,7.43,0,0,1-1.87-.34,3.14,3.14,0,0,1-1.84-1.42c-.42-.77-.42-1.77-1-2.39s-1.87-.73-2.18-1.6A1.28,1.28,0,0,1,551.27,192Z" style="fill:#263238"></path><path d="M519.82,260.73,518.66,263a2.47,2.47,0,0,0,1.11,3.33l8.06,3.94a2.45,2.45,0,0,0,3.24-1l1.78-3.28Z" style="fill:#263238"></path><path d="M602.12,229.14,594.77,231l-.41-1.9a4.27,4.27,0,0,1,.17-2.81,1.75,1.75,0,0,0,.1-.49,31.86,31.86,0,0,0-1.87-4.26c-.58-1.18,0-2,.38-1.51.66.85,2.7,4.63,3.18,4.92s-.12-1.73-.12-1.73c-1.43-4.3-1.82-4.9-1.07-5.2s3,6.05,3,6.05-.3-.9.37-1.21,1.16.54,1.16.54c-.17-.45.49-.64.49-.64,1.7-.06,2,6.43,2,6.43L594.77,231l.8,25.5-2.68-2.87-9,7.4,9,8.23a8,8,0,0,0,6.87,1.71h0a8,8,0,0,0,6.31-8.82Z" style="fill:#ffbe9d"></path><path d="M596.3,230.23s.29-.45.7-1.19a9.78,9.78,0,0,0,.63-1.36c.1-.26.19-.54.27-.83A1.77,1.77,0,0,0,598,226a.34.34,0,0,0-.27-.27.65.65,0,0,0-.41.14,4.71,4.71,0,0,0-.74.65,4.79,4.79,0,0,0-.86,1.31l-.06.15-.09-.12a2.81,2.81,0,0,0-.73-.65s.42,0,.87.54l-.15,0a4.29,4.29,0,0,1,.83-1.42,4.09,4.09,0,0,1,.78-.7.87.87,0,0,1,.6-.2.62.62,0,0,1,.5.47,1.93,1.93,0,0,1-.11,1,9.11,9.11,0,0,1-1,2.22A4.05,4.05,0,0,1,596.3,230.23Z" style="fill:#eb996e"></path><path d="M598.31,224.43a6.58,6.58,0,0,1,.24,1.37c.05.46.11,1,.18,1.49a4.83,4.83,0,0,0,.12.85c.07.26.34.44.51.3s.22-.48.25-.77,0-.6,0-.88c0-.56,0-1.07,0-1.5a6.37,6.37,0,0,1,.08-1.38,7.79,7.79,0,0,1,.12,1.38c0,.43,0,.94,0,1.51,0,.28,0,.58,0,.89a1.34,1.34,0,0,1-.36,1,.54.54,0,0,1-.61,0,.81.81,0,0,1-.32-.46,5.07,5.07,0,0,1-.12-.9q-.06-.81-.12-1.5A6.74,6.74,0,0,1,598.31,224.43Z" style="fill:#eb996e"></path><path d="M599.89,226.09c.05,0,0,.32.11.8a1.46,1.46,0,0,0,.36.71c.11.07.17.06.24-.06a3.29,3.29,0,0,0,.16-.5,17.68,17.68,0,0,0,.35-2.74,5.14,5.14,0,0,1-.07,2.81,2.59,2.59,0,0,1-.2.57.45.45,0,0,1-.3.23.47.47,0,0,1-.34-.11,1.15,1.15,0,0,1-.29-.45,2.62,2.62,0,0,1-.11-.42C599.73,226.39,599.86,226.08,599.89,226.09Z" style="fill:#eb996e"></path><path d="M594.09,251.27l-12.94,10.79.2.22a4.09,4.09,0,0,0,5.71.32l7.16-6.26a3.16,3.16,0,0,0,.47-4.24Z" style="fill:#263238"></path><path d="M550.47,226.36l.89-3.91s4.8.31,6.34,4.75a9.65,9.65,0,0,1,7.64-5.54l1.17,5-9.26,3.87-6.78-4.16" style="fill:#263238"></path><path d="M532.12,266.5a58.92,58.92,0,0,1-5.62-2.71,57.69,57.69,0,0,1-5.57-2.81,41.87,41.87,0,0,1,11.19,5.52Z" style="fill:#455a64"></path><path d="M593.32,251.12a7.44,7.44,0,0,1-1.19,1.91,29.22,29.22,0,0,1-3.65,4,28.84,28.84,0,0,1-4.33,3.27,8.3,8.3,0,0,1-2,1c-.09-.15,2.9-1.84,6-4.68S593.19,251,593.32,251.12Z" style="fill:#455a64"></path><path d="M557.7,227.2a2.29,2.29,0,0,1,0,.62c0,.46,0,1,.06,1.77,0,1.61.06,3.82.1,6.52,0,5.57.08,13.15.14,21.52s0,16,0,21.52c0,2.71,0,4.92-.06,6.53,0,.72,0,1.31-.05,1.77a.31.31,0,1,1-.1,0c0-.46,0-1.05-.06-1.78,0-1.6-.06-3.82-.1-6.52,0-5.57-.08-13.14-.13-21.52s0-15.95,0-21.52c0-2.7.05-4.91.07-6.52,0-.72,0-1.31,0-1.77A3,3,0,0,1,557.7,227.2Z" style="fill:#455a64"></path><path d="M556.76,225.72s-.15-.07-.38,0-.44.31-.67.74a7.75,7.75,0,0,0-1,3.45l0,.6-.42-.43,0,0c-2-2.1-3.91-3.55-3.82-3.67a14.81,14.81,0,0,1,4.2,3.31l0,0-.45.17a7.07,7.07,0,0,1,1.21-3.62c.26-.39.62-.75,1-.74S556.79,225.71,556.76,225.72Z" style="fill:#455a64"></path><path d="M565.46,221.75a29.81,29.81,0,0,1,1.27,4.69l0,.15-.13.1c-.83.57-1.77,1.17-2.78,1.77s-2.09,1.17-3,1.62l-.35.17v-.38a5.52,5.52,0,0,0-.93-3.09c-.45-.67-.82-1-.78-1s.46.21,1,.87a5.37,5.37,0,0,1,1.17,3.25l-.34-.21c.91-.48,1.92-1,3-1.65s1.94-1.18,2.77-1.72l-.1.25A31.28,31.28,0,0,1,565.46,221.75Z" style="fill:#455a64"></path><path d="M559.22,238.27s-.05.2,0,.41.24.36.47.21.17-.37,0-.52-.34-.1-.37-.17.14-.27.52-.16a.71.71,0,0,1,.48.48.74.74,0,0,1-.33.8.72.72,0,0,1-.86,0,.74.74,0,0,1-.27-.62C558.91,238.29,559.2,238.2,559.22,238.27Z" style="fill:#455a64"></path><path d="M559.59,255.33s-.05.2,0,.41.24.36.47.21.17-.37,0-.52-.34-.11-.37-.17.14-.28.52-.16a.69.69,0,0,1,.48.48.74.74,0,0,1-.33.8.72.72,0,0,1-.86,0,.74.74,0,0,1-.27-.62C559.28,255.35,559.57,255.26,559.59,255.33Z" style="fill:#455a64"></path><path d="M559.68,274.24c.05.06,0,.21,0,.41s.23.37.47.21.16-.37,0-.51-.33-.11-.37-.17.14-.28.53-.17a.72.72,0,0,1,.47.49.77.77,0,0,1-1.19.79.71.71,0,0,1-.26-.63C559.37,274.27,559.66,274.18,559.68,274.24Z" style="fill:#455a64"></path><path d="M528.36,260c-.14,0-.41-.73-.61-1.69s-.23-1.77-.09-1.8.41.73.6,1.7S528.5,260,528.36,260Z" style="fill:#f5f5f5"></path><path d="M532.15,249.33c0,.14-.76.43-1.76.65s-1.85.29-1.88.15.76-.44,1.76-.66S532.12,249.19,532.15,249.33Z" style="fill:#f5f5f5"></path><path d="M534.78,255.41c.11.1-.22.62-.72,1.15s-1,.9-1.1.8.22-.61.72-1.15S534.68,255.31,534.78,255.41Z" style="fill:#f5f5f5"></path><path d="M535.37,243.83a9.33,9.33,0,0,1-.13-4.33,9,9,0,0,1,.13,4.33Z" style="fill:#f5f5f5"></path><path d="M543,234.14a8.74,8.74,0,0,1-4.19,0,4.6,4.6,0,0,1,2.1-.25A4.46,4.46,0,0,1,543,234.14Z" style="fill:#f5f5f5"></path><path d="M548.42,233.89a5.05,5.05,0,0,1,.48-2.17c.41-1.15.84-2,1-2a5.05,5.05,0,0,1-.48,2.17C549,233.05,548.56,233.94,548.42,233.89Z" style="fill:#f5f5f5"></path><path d="M546.39,245.92c-.12.07-.66-.69-1.19-1.7s-.86-1.88-.73-1.95.66.7,1.19,1.71S546.52,245.85,546.39,245.92Z" style="fill:#f5f5f5"></path><path d="M553.66,241.74c-.14,0-.17-.73,0-1.57s.32-1.52.47-1.51.16.73,0,1.58S553.8,241.76,553.66,241.74Z" style="fill:#f5f5f5"></path><path d="M552.81,249c0,.15-.65.35-1.5.46s-1.56.08-1.57-.06.65-.35,1.5-.46S552.79,248.87,552.81,249Z" style="fill:#f5f5f5"></path><path d="M543,258.36c-.15,0-.33-.7-.41-1.59s0-1.61.12-1.63.32.7.4,1.59S543.17,258.34,543,258.36Z" style="fill:#f5f5f5"></path><path d="M551.11,261.13c.11.09-.39.89-1.12,1.78s-1.41,1.53-1.52,1.44.39-.89,1.12-1.77S551,261,551.11,261.13Z" style="fill:#f5f5f5"></path><path d="M544,271.75c-.13.06-.55-.62-.93-1.5s-.59-1.66-.46-1.72.55.62.94,1.51S544.17,271.69,544,271.75Z" style="fill:#f5f5f5"></path><path d="M553.22,272.88c.14,0,.1.86-.1,1.86s-.47,1.8-.61,1.77-.1-.86.1-1.87S553.08,272.85,553.22,272.88Z" style="fill:#f5f5f5"></path><path d="M544.53,286.21c-.11.09-.75-.48-1.43-1.27s-1.14-1.51-1-1.6.75.47,1.43,1.26S544.64,286.11,544.53,286.21Z" style="fill:#f5f5f5"></path><path d="M545,291.29c0,.14-.77.38-1.77.54s-1.83.17-1.86,0,.78-.39,1.78-.55S545,291.14,545,291.29Z" style="fill:#f5f5f5"></path><path d="M555.31,284.46c.1.1-.63.94-1.63,1.87s-1.89,1.61-2,1.5.63-.94,1.63-1.88S555.21,284.35,555.31,284.46Z" style="fill:#f5f5f5"></path><path d="M546.91,277.07c.15,0,.2.5.11,1.08s-.26,1-.4,1-.19-.5-.11-1.08S546.77,277.05,546.91,277.07Z" style="fill:#f5f5f5"></path><path d="M555.18,255.28c0,.14-.7.07-1.47-.17s-1.36-.53-1.32-.66.7-.07,1.47.16S555.22,255.15,555.18,255.28Z" style="fill:#f5f5f5"></path><path d="M562.15,250a4.58,4.58,0,0,1,.09-2.13c.19-1.16.46-2.08.61-2.06a4.55,4.55,0,0,1-.1,2.14C562.56,249.08,562.29,250,562.15,250Z" style="fill:#f5f5f5"></path><path d="M570.59,254.82c-.11.1-.76-.51-1.47-1.35s-1.18-1.6-1.07-1.7.77.52,1.47,1.36S570.71,254.73,570.59,254.82Z" style="fill:#f5f5f5"></path><path d="M565.38,258.91a4.19,4.19,0,0,1-.53,2c-.42,1-.87,1.84-1,1.79a4.19,4.19,0,0,1,.53-2C564.79,259.66,565.25,258.86,565.38,258.91Z" style="fill:#f5f5f5"></path><path d="M566.07,270.24c-.1.1-.84-.49-1.64-1.31s-1.36-1.56-1.26-1.66.84.48,1.64,1.3S566.17,270.14,566.07,270.24Z" style="fill:#f5f5f5"></path><path d="M572.48,270.78c-.14,0-.07-.9.17-1.94s.53-1.86.67-1.83.07.9-.16,1.94S572.62,270.81,572.48,270.78Z" style="fill:#f5f5f5"></path><path d="M566.37,280.83c-.11.09-.73-.47-1.5-1.14s-1.4-1.23-1.32-1.35.87.25,1.67,1S566.48,280.74,566.37,280.83Z" style="fill:#f5f5f5"></path><path d="M566.78,287c.09.1-.52.77-1.47,1.33s-1.84.75-1.89.62.72-.54,1.62-1.07S566.68,286.87,566.78,287Z" style="fill:#f5f5f5"></path><path d="M575,288.24c.15,0,.29.77.33,1.74s0,1.75-.19,1.75-.29-.77-.33-1.73S574.88,288.25,575,288.24Z" style="fill:#f5f5f5"></path><path d="M572,280.84a7.88,7.88,0,0,1-.2-2.8,7.66,7.66,0,0,1,.32-2.78,7.84,7.84,0,0,1,.2,2.79A7.44,7.44,0,0,1,572,280.84Z" style="fill:#f5f5f5"></path><path d="M573.76,259.75c.06.13-.47.52-1.24.68s-1.42,0-1.42-.12.6-.24,1.31-.39S573.69,259.62,573.76,259.75Z" style="fill:#f5f5f5"></path><path d="M570.89,238.39a9.82,9.82,0,0,1-.6,4.47,5.07,5.07,0,0,1,0-2.27A4.9,4.9,0,0,1,570.89,238.39Z" style="fill:#f5f5f5"></path><path d="M564.42,235.86c.14,0,.48.64.76,1.53s.39,1.63.25,1.68-.47-.64-.75-1.53S564.28,235.91,564.42,235.86Z" style="fill:#f5f5f5"></path><path d="M567.32,230.4c.06.12-.73.63-1.83,1a3.36,3.36,0,0,1-2.07.19c0-.15.86-.38,1.92-.69S567.26,230.26,567.32,230.4Z" style="fill:#f5f5f5"></path><path d="M572.08,232.94c-.13-.05,0-.84.39-1.77s.73-1.64.87-1.58,0,.84-.39,1.76S572.22,233,572.08,232.94Z" style="fill:#f5f5f5"></path><path d="M581.73,238.5c-.08.12-.91-.38-1.84-1.11s-1.6-1.42-1.51-1.53.91.39,1.84,1.12S581.82,238.39,581.73,238.5Z" style="fill:#f5f5f5"></path><path d="M578.38,244.53a4.81,4.81,0,0,1-.33-2.23,4.88,4.88,0,0,1,.19-2.24,9.74,9.74,0,0,1,.14,4.47Z" style="fill:#f5f5f5"></path><path d="M581.71,251.84c0,.14-.77.19-1.69.11s-1.67-.27-1.65-.41.77-.2,1.69-.11S581.73,251.69,581.71,251.84Z" style="fill:#f5f5f5"></path><path d="M586.16,251.24a5.4,5.4,0,0,1-.77-4.61,11.51,11.51,0,0,1,.38,2.31A11.26,11.26,0,0,1,586.16,251.24Z" style="fill:#f5f5f5"></path><path d="M585.34,257.62c0,.14-.6.38-1.41.54s-1.49.17-1.52,0,.61-.38,1.42-.54S585.32,257.48,585.34,257.62Z" style="fill:#f5f5f5"></path><path d="M561.75,226.65c-.1.11-.5-.11-.76-.58s-.22-.93-.08-.95.32.31.54.7S561.85,226.55,561.75,226.65Z" style="fill:#f5f5f5"></path><path d="M564.54,225.81c-.13.07-.45-.32-.72-.86s-.39-1-.26-1.09.45.32.72.86S564.67,225.75,564.54,225.81Z" style="fill:#f5f5f5"></path><path d="M553.65,225.26c0,.14-.46.22-1,.19s-1-.19-1-.33.46-.23,1-.19S553.66,225.11,553.65,225.26Z" style="fill:#f5f5f5"></path><path d="M571.34,207.76s-.11,0-.29,0a3.44,3.44,0,0,1-.78-.37,3.8,3.8,0,0,1-1.74-2.59,16.84,16.84,0,0,0-.34-2.07,1.62,1.62,0,0,0-.61-.84,3.6,3.6,0,0,0-1.09-.44,5,5,0,0,1-1.31-.48,2.35,2.35,0,0,1-.93-1.2c-.36-.92-.38-2-.93-2.65-1.21-1.4-3.73,0-5.17-1.67a7.1,7.1,0,0,1-.88-2.36,3.24,3.24,0,0,0-4-2.09,9.86,9.86,0,0,0-1,.43s0-.09.21-.21a3,3,0,0,1,.76-.41,3.41,3.41,0,0,1,3.09.38,3.58,3.58,0,0,1,1.37,1.76,7.12,7.12,0,0,0,.84,2.19,3,3,0,0,0,2.32.72,9.54,9.54,0,0,1,1.47.13,2.47,2.47,0,0,1,1.41.8c.7.92.67,2,1,2.8a1.92,1.92,0,0,0,.73,1,4.51,4.51,0,0,0,1.17.44,3.79,3.79,0,0,1,1.23.53,2.07,2.07,0,0,1,.75,1.07,13.49,13.49,0,0,1,.29,2.15,3.77,3.77,0,0,0,1.49,2.49C571,207.61,571.36,207.72,571.34,207.76Z" style="fill:#455a64"></path><path d="M551.21,422.75a1.64,1.64,0,0,1,0-.32c0-.25,0-.56,0-1,0-.87-.08-2.1-.14-3.67-.11-3.23-.26-7.84-.45-13.52-.4-11.44-.94-27.18-1.54-44.58s-.93-33.18-1-44.6c0-5.71,0-10.33,0-13.52,0-1.57,0-2.81,0-3.68,0-.4,0-.71,0-1a1.34,1.34,0,0,1,0-.32,1.14,1.14,0,0,1,0,.32l0,1c0,.87,0,2.11,0,3.68.05,3.22.1,7.83.18,13.51.17,11.42.59,27.18,1.16,44.6s1.1,33.17,1.39,44.58c.14,5.71.24,10.33.28,13.52,0,1.57,0,2.8,0,3.68v.95A2.06,2.06,0,0,1,551.21,422.75Z" style="fill:#263238"></path><path d="M593.25,424.06c-.14,0-5.45-28.54-11.86-63.79S569.9,296.4,570,296.38s5.45,28.53,11.86,63.8S593.39,424,593.25,424.06Z" style="fill:#263238"></path><path d="M559.55,304.64s-.19.13-.6.09a2.3,2.3,0,0,1-1.43-.86,5.23,5.23,0,0,1-.9-2.27c-.19-.88-.37-1.85-.52-2.88a42.9,42.9,0,0,1-.48-5.28,8.55,8.55,0,0,1,.08-2.2c.16,0,.3,3.34.91,7.41.16,1,.32,2,.48,2.85a5.33,5.33,0,0,0,.72,2.15,2.25,2.25,0,0,0,1.18.88C559.34,304.63,559.55,304.59,559.55,304.64Z" style="fill:#263238"></path><path d="M557.6,292c.06.06,0,.23.06.46a.39.39,0,1,0,.6-.41c-.18-.16-.37-.15-.39-.22s.19-.26.58-.09a.79.79,0,0,1,.46.55.82.82,0,0,1-.37.83.8.8,0,0,1-.91,0,.82.82,0,0,1-.34-.63C557.29,292.08,557.57,292,557.6,292Z" style="fill:#263238"></path></g><g id="freepik--charger-station--inject-34"><polygon points="712.99 428.29 653.39 428.94 653.39 279.03 712.99 279.03 712.99 428.29" style="fill:#525165"></polygon><g style="opacity:0.30000000000000004"><polygon points="712.99 428.29 653.39 428.94 653.39 279.03 712.99 279.03 712.99 428.29"></polygon></g><polygon points="686.13 428.58 626.53 428.94 626.53 279.03 686.13 279.03 686.13 428.58" style="fill:#525165"></polygon><polygon points="625.14 266.39 625.14 268.17 688.4 268.17 713.99 231.18 713.36 228.69 625.14 266.39" style="fill:#263238"></polygon><rect x="644.43" y="267.74" width="2.04" height="11.29" style="fill:#263238"></rect><polygon points="692.92 259.57 692.92 279.03 695.39 279.03 695.39 257.48 692.92 259.57" style="fill:#263238"></polygon><polygon points="651.03 228.69 625.14 266.39 687.47 266.39 713.36 228.69 651.03 228.69" style="fill:#455a64"></polygon><path d="M646.43,266.39c-.12-.08,5.72-8.59,13-19s13.34-18.78,13.45-18.69-5.71,8.58-13,19S646.55,266.47,646.43,266.39Z" style="fill:#ebebeb"></path><path d="M667.29,266.39c-.11-.08,5.72-8.59,13-19s13.34-18.78,13.46-18.69-5.72,8.58-13,19S667.41,266.47,667.29,266.39Z" style="fill:#ebebeb"></path><path d="M638.73,247.54c0-.14,13.84-.26,30.91-.26s30.92.12,30.92.26-13.84.26-30.92.26S638.73,247.69,638.73,247.54Z" style="fill:#ebebeb"></path><rect x="639.89" y="295.03" width="34.16" height="38.52" style="fill:#ebebeb"></rect><path d="M648.38,344.43a3.49,3.49,0,0,1-3.49,3.49c-.87,0-3.09-.09-3.09-.09a4.87,4.87,0,0,1-1.84-3.6,3.66,3.66,0,0,1,2.13-3.25s2.08,0,2.8,0A3.49,3.49,0,0,1,648.38,344.43Z" style="fill:#263238"></path><circle cx="642.56" cy="344.43" r="3.49" style="fill:#455a64"></circle><path d="M661.1,344.43a3.49,3.49,0,0,1-3.49,3.49c-.87,0-3.09-.09-3.09-.09a4.87,4.87,0,0,1-1.84-3.6,3.66,3.66,0,0,1,2.13-3.25s2.08,0,2.8,0A3.49,3.49,0,0,1,661.1,344.43Z" style="fill:#263238"></path><circle cx="655.28" cy="344.43" r="3.49" style="fill:#455a64"></circle><path d="M673.69,344.43a3.49,3.49,0,0,1-3.49,3.49c-.87,0-3.09-.09-3.09-.09a4.87,4.87,0,0,1-1.84-3.6A3.66,3.66,0,0,1,667.4,341s2.08,0,2.8,0A3.49,3.49,0,0,1,673.69,344.43Z" style="fill:#263238"></path><path d="M671.36,344.43a3.49,3.49,0,1,1-3.49-3.49A3.49,3.49,0,0,1,671.36,344.43Z" style="fill:#455a64"></path><polygon points="657.79 303.15 650.02 303.26 657.19 314.29 651.76 314.36 659.37 329.52 656.75 318.25 663.91 318.16 657.79 303.15" style="fill:#525165"></polygon><path d="M677.25,421.17s0-.1,0-.3,0-.49,0-.86c0-.78,0-1.89,0-3.32,0-2.92,0-7.13-.07-12.46,0-10.66-.07-25.73-.12-43.5l.24.24-40.57,0c-.06.06.49-.48.26-.24h0v16.68c0,5.43,0,10.71,0,15.8,0,10.18,0,19.6,0,27.93l-.21-.2,29.5.11,8.17.05,2.15,0,.75,0s-.23,0-.7,0l-2.12,0-8.12,0-29.63.11h-.21v-.21c0-8.33,0-17.75,0-27.93,0-5.09,0-10.37,0-15.8V360.76h0c-.23.22.31-.34.26-.28l40.57,0h.24v.23c0,17.83-.09,33-.12,43.66,0,5.3,0,9.5-.06,12.4,0,1.41,0,2.51,0,3.28,0,.35,0,.62,0,.83A1.15,1.15,0,0,1,677.25,421.17Z" style="fill:#263238"></path><path d="M671.63,390.74c.06.06-.23.36-.12.92a1.07,1.07,0,0,0,.48.74,1,1,0,0,0,1.39-1,1.09,1.09,0,0,0-.56-.69c-.5-.27-.88-.09-.91-.16s.35-.42,1.06-.18a1.41,1.41,0,0,1,.87.91,1.34,1.34,0,0,1-.56,1.45,1.36,1.36,0,0,1-1.55.09,1.43,1.43,0,0,1-.59-1.11C671.12,391,671.61,390.68,671.63,390.74Z" style="fill:#263238"></path></g></svg>