<?xml version="1.0" encoding="utf-8"?>
<svg viewBox="0 0 500 500" xmlns="http://www.w3.org/2000/svg">
  <path d="M 214.725 354.422 C 214.725 354.422 213.426 341.152 207.008 330.818 C 200.59 320.487 191.662 313.898 183.236 313.101 C 174.807 312.304 167.879 319.955 176.818 325.425 C 185.756 330.895 201.7 336.583 208.762 356.621 L 214.725 354.422 Z" fill="#525289" style=""/>
  <g opacity="0.15" transform="matrix(2.068802, 0, 0, 2.068802, 170.470993, 106.912735)" style="">
    <path opacity="0.15" d="M21.3911 119.639C21.3911 119.639 20.7633 113.225 17.6613 108.23C14.5593 103.236 10.243 100.051 6.16963 99.6664C2.09622 99.2815 -1.25322 102.979 3.06761 105.623C7.38844 108.267 15.0954 111.016 18.509 120.702L21.3911 119.639Z" fill="black"/>
  </g>
  <path d="M 212.308 350.963 L 212.394 350.963 C 212.449 350.942 212.498 350.909 212.54 350.869 C 212.584 350.828 212.619 350.781 212.642 350.726 C 212.666 350.673 212.679 350.615 212.679 350.557 C 212.681 350.497 212.671 350.439 212.65 350.383 C 204.118 328.325 187.3 318.912 179.613 317.017 C 179.557 317.003 179.498 316.999 179.44 317.01 C 179.382 317.017 179.323 317.038 179.274 317.067 C 179.223 317.098 179.179 317.138 179.143 317.185 C 179.108 317.232 179.084 317.287 179.069 317.344 C 179.055 317.402 179.053 317.46 179.061 317.52 C 179.069 317.578 179.09 317.634 179.119 317.683 C 179.15 317.735 179.189 317.779 179.237 317.814 C 179.285 317.849 179.338 317.874 179.396 317.889 C 186.923 319.785 203.387 328.998 211.814 350.706 C 211.856 350.799 211.926 350.876 212.015 350.923 C 212.106 350.969 212.21 350.983 212.308 350.963 Z" fill="white" style=""/>
  <path d="M 170.721 346.223 C 171.396 347.871 173.148 348.763 174.781 349.465 C 176.411 350.166 178.182 350.934 179.037 352.497 C 180.743 355.644 177.681 359.921 179.529 362.993 C 179.963 363.609 180.517 364.131 181.159 364.527 C 181.801 364.923 182.518 365.183 183.263 365.295 C 184.485 365.551 185.737 365.588 186.981 365.721 C 187.572 365.723 188.164 365.692 188.751 365.626 C 190.487 365.293 192.285 365.531 193.871 366.308 C 196.298 367.759 196.971 370.897 198.411 373.333 C 199.298 374.774 200.488 376.003 201.896 376.94 C 203.305 377.875 204.902 378.496 206.574 378.754 C 209.36 379.201 213.561 378.681 214.318 377.466 C 214.886 376.518 213.37 373.674 213.322 372.575 C 213.306 369.78 213.027 366.994 212.489 364.253 C 212.186 363.011 212.04 361.737 212.052 360.461 C 212.052 359.029 212.137 357.618 212.166 356.176 C 212.195 354.736 212.592 353.426 212.071 351.854 C 211.51 350.391 210.735 349.02 209.768 347.787 C 208.866 346.516 207.958 345.265 207.027 343.995 C 206.003 342.474 204.784 341.092 203.407 339.882 C 202.169 338.875 200.742 338.131 199.206 337.699 C 197.674 337.265 196.066 337.149 194.488 337.36 C 191.871 337.728 189.293 339.123 186.618 338.924 C 183.945 338.725 181.482 337.976 178.817 338.091 C 177.407 338.093 176.018 338.415 174.752 339.034 C 173.485 339.652 172.377 340.552 171.51 341.663 C 171.011 342.299 170.68 343.049 170.542 343.843 C 170.405 344.64 170.467 345.457 170.721 346.223 Z" fill="#525289" style=""/>
  <path d="M 212.203 370.48 C 212.255 370.469 212.305 370.449 212.348 370.418 C 212.391 370.387 212.429 370.347 212.456 370.301 C 212.482 370.256 212.501 370.206 212.507 370.153 C 212.516 370.101 212.511 370.047 212.496 369.997 C 206.667 345.54 181.169 341.359 175.177 341.634 C 175.073 341.641 174.971 341.686 174.898 341.765 C 174.827 341.841 174.787 341.945 174.789 342.052 C 174.791 342.104 174.805 342.155 174.827 342.203 C 174.849 342.25 174.88 342.292 174.92 342.327 C 174.958 342.363 175.004 342.39 175.051 342.408 C 175.101 342.427 175.155 342.432 175.206 342.43 C 181.074 342.166 206.013 346.223 211.721 370.186 C 211.75 370.287 211.814 370.374 211.905 370.427 C 211.994 370.482 212.102 370.5 212.203 370.48 Z" fill="white" style=""/>
  <path d="M 184.098 357.427 C 184.177 357.413 184.252 357.374 184.305 357.314 C 186.726 355.332 189.552 353.904 192.584 353.137 C 195.618 352.369 198.781 352.276 201.853 352.867 C 201.905 352.878 201.956 352.876 202.008 352.865 C 202.06 352.856 202.109 352.832 202.151 352.803 C 202.194 352.772 202.231 352.735 202.26 352.69 C 202.289 352.646 202.308 352.597 202.317 352.544 C 202.333 352.442 202.31 352.334 202.25 352.249 C 202.191 352.163 202.096 352.103 201.994 352.081 C 198.799 351.467 195.505 351.567 192.355 352.373 C 189.202 353.18 186.264 354.672 183.757 356.745 C 183.719 356.782 183.688 356.825 183.668 356.873 C 183.648 356.92 183.637 356.973 183.637 357.024 C 183.637 357.075 183.648 357.128 183.668 357.177 C 183.688 357.225 183.719 357.268 183.757 357.303 C 183.801 357.349 183.854 357.383 183.912 357.405 C 183.972 357.425 184.034 357.434 184.098 357.427 Z" fill="white" style=""/>
  <path d="M 233.617 255.259 L 225.91 233.031 L 211.245 224.565 L 211.256 242.348 L 211.256 380.178 L 233.617 393.087 L 233.617 255.259 Z" fill="#525289" style=""/>
  <g opacity="0.5" transform="matrix(2.068802, 0, 0, 2.068802, 170.470993, 106.912735)" style="">
    <path opacity="0.5" d="M30.523 71.707L26.7978 60.9622L19.7094 56.8704L19.714 65.4663V132.089L30.523 138.329V71.707Z" fill="black"/>
  </g>
  <path d="M 268.274 208.573 L 275.97 230.803 L 233.617 255.259 L 225.919 233.031 L 268.274 208.573 Z" fill="#525289" style=""/>
  <path opacity="0.2" d="M 268.274 208.573 L 275.97 230.803 L 233.617 255.259 L 225.919 233.031 L 268.274 208.573 Z" fill="black" style=""/>
  <path d="M 268.269 208.573 L 253.606 200.108 L 211.253 224.565 L 225.917 233.031 L 268.269 208.573 Z" fill="#525289" style=""/>
  <path opacity="0.1" d="M 268.269 208.573 L 253.606 200.108 L 211.253 224.565 L 225.917 233.031 L 268.269 208.573 Z" fill="black" style=""/>
  <path d="M 233.617 255.259 C 233.816 266.747 233.9 278.227 233.977 289.715 L 234.091 324.174 L 233.977 358.632 L 233.874 375.855 L 233.646 393.087 L 233.408 375.855 L 233.276 358.632 L 233.172 324.174 L 233.286 289.715 C 233.334 278.227 233.419 266.747 233.617 255.259 Z" fill="white" style=""/>
  <path d="M 275.97 230.803 C 272.72 232.907 269.412 234.925 266.103 236.926 C 262.794 238.926 259.466 240.858 256.103 242.822 C 252.737 244.784 249.381 246.669 245.988 248.509 L 240.897 251.295 C 239.182 252.198 237.484 253.127 235.75 253.997 C 237.38 252.936 239.029 251.931 240.67 250.888 L 245.627 247.874 C 248.937 245.874 252.264 243.941 255.628 241.978 C 258.993 240.016 262.349 238.13 265.733 236.291 C 269.118 234.451 272.521 232.564 275.97 230.803 Z" fill="white" style=""/>
  <path d="M 267.999 208.716 C 264.746 210.82 261.439 212.829 258.131 214.829 C 254.822 216.829 251.496 218.764 248.13 220.735 C 244.763 222.707 241.408 224.527 238.026 226.423 L 232.924 229.228 C 231.209 230.13 229.513 231.058 227.788 231.93 C 229.409 230.868 231.058 229.862 232.697 228.83 L 237.656 225.806 C 240.974 223.805 244.29 221.882 247.656 219.91 C 251.022 217.938 254.377 216.118 257.77 214.223 C 261.163 212.328 264.585 210.478 267.999 208.716 Z" fill="white" style=""/>
  <path d="M 233.617 255.257 L 275.97 230.803 L 275.98 368.64 L 233.617 393.087 L 233.617 255.257 Z" fill="#525289" style=""/>
  <path opacity="0.3" d="M 233.617 255.257 L 275.97 230.803 L 275.98 368.64 L 233.617 393.087 L 233.617 255.257 Z" fill="black" style=""/>
  <path d="M 237.41 257.448 L 272.18 237.37 L 272.188 366.452 L 237.41 386.529 L 237.41 257.448 Z" fill="#455A64" style=""/>
  <path d="M 268.274 244.14 L 268.274 297.499 L 241.315 313.054 L 241.315 259.704 L 266.349 245.249 L 268.274 244.14 Z" fill="#37474F" style=""/>
  <path d="M 268.274 244.14 L 266.349 245.249 L 266.358 296.39 L 268.274 297.499 L 268.274 244.14 Z" fill="#263238" style=""/>
  <path d="M 266.358 296.39 L 241.315 310.836 L 241.315 259.704 L 266.349 245.249 L 266.358 296.39 Z" fill="#525289" style=""/>
  <path d="M 256.728 256.387 L 249.543 269.725 L 254.518 270.995 L 252.044 282.189 L 258.623 268.169 L 253.6 267.079 L 256.728 256.387 Z" fill="#FAFAFA" style=""/>
  <path opacity="0.15" d="M 246.196 290.37 L 262.434 280.996 C 263.003 280.663 263.468 280.9 263.468 281.516 C 263.441 281.86 263.333 282.194 263.153 282.489 C 262.976 282.783 262.728 283.031 262.434 283.213 L 246.196 292.598 C 245.637 292.92 245.171 292.693 245.171 292.076 C 245.197 291.73 245.302 291.398 245.48 291.099 C 245.658 290.804 245.904 290.554 246.196 290.37 Z" fill="black" style=""/>
  <path opacity="0.15" d="M 246.196 294.826 L 262.434 285.441 C 263.003 285.119 263.468 285.346 263.468 285.963 C 263.441 286.306 263.335 286.639 263.156 286.935 C 262.976 287.23 262.728 287.477 262.434 287.659 L 246.196 297.043 C 245.637 297.366 245.171 297.138 245.171 296.522 C 245.197 296.179 245.302 295.845 245.48 295.55 C 245.658 295.256 245.904 295.008 246.196 294.826 Z" fill="black" style=""/>
  <path opacity="0.15" d="M 246.196 299.271 L 262.434 289.896 C 263.003 289.564 263.468 289.792 263.468 290.408 C 263.441 290.754 263.333 291.087 263.153 291.385 C 262.976 291.681 262.728 291.931 262.434 292.113 L 246.196 301.489 C 245.637 301.82 245.171 301.585 245.171 300.978 C 245.197 300.633 245.302 300.298 245.48 300.002 C 245.658 299.703 245.902 299.453 246.196 299.271 Z" fill="black" style=""/>
  <path d="M 213.909 279.534 C 213.909 277.137 214.762 275.468 216.099 274.795 C 216.278 274.7 217.049 274.285 217.189 274.17 C 218.374 273.488 219.975 273.563 221.73 274.578 C 225.389 276.69 228.364 282.057 228.364 286.559 L 228.364 297.032 C 228.364 299.3 227.618 300.901 226.403 301.68 C 226.157 301.84 225.257 302.341 225.048 302.455 C 223.873 303.12 222.289 303.034 220.555 302.029 C 216.887 299.915 213.92 294.55 213.92 290.047 L 213.909 279.534 Z" fill="#525289" style=""/>
  <path d="M 220.544 275.155 C 216.876 273.041 213.909 274.985 213.909 279.487 L 213.909 289.962 C 213.909 294.465 216.876 299.829 220.544 301.944 C 224.214 304.059 227.181 302.114 227.181 297.612 L 227.181 287.119 C 227.17 282.634 224.204 277.27 220.544 275.155 Z" fill="#525289" style=""/>
  <path opacity="0.7" d="M 220.544 275.155 C 216.876 273.041 213.909 274.985 213.909 279.487 L 213.909 289.962 C 213.909 294.465 216.876 299.829 220.544 301.944 C 224.214 304.059 227.181 302.114 227.181 297.612 L 227.181 287.119 C 227.17 282.634 224.204 277.27 220.544 275.155 Z" fill="white" style=""/>
  <path opacity="0.5" d="M 225.152 302.285 C 225.456 302.106 226.186 301.716 226.384 301.574 C 227.608 300.806 228.357 299.187 228.357 296.93 L 228.357 286.474 C 228.297 284.289 227.744 282.148 226.734 280.207 L 225.56 280.882 C 226.565 282.818 227.115 284.957 227.17 287.137 L 227.17 297.565 C 227.17 299.906 226.393 301.537 225.152 302.285 Z" fill="white" style=""/>
  <path opacity="0.7" d="M 222.963 302.77 C 223.242 302.807 223.525 302.807 223.806 302.77 C 223.525 302.797 223.242 302.797 222.963 302.77 Z" fill="white" style=""/>
  <path opacity="0.9" d="M 216.318 274.586 C 217.015 274.338 217.762 274.261 218.497 274.359 C 219.228 274.458 219.928 274.731 220.537 275.155 C 222.712 276.542 224.453 278.513 225.56 280.843 L 226.734 280.17 C 225.642 277.836 223.906 275.862 221.73 274.483 C 219.975 273.469 218.374 273.393 217.189 274.075 L 216.318 274.586 Z" fill="white" style=""/>
  <path d="M 220.544 281.43 C 218.716 280.369 217.228 281.231 217.228 283.327 C 217.288 284.477 217.621 285.598 218.196 286.598 C 218.774 287.595 219.578 288.443 220.544 289.072 C 222.375 290.123 223.855 289.271 223.855 287.175 C 223.795 286.025 223.463 284.905 222.889 283.906 C 222.313 282.907 221.511 282.059 220.544 281.43 Z" fill="#37474F" style=""/>
  <path d="M 218.025 282.909 C 217.973 282.22 218.194 281.54 218.639 281.014 C 219.301 280.909 219.977 281.053 220.537 281.421 C 221.494 282.045 222.293 282.885 222.865 283.871 C 223.441 284.86 223.775 285.969 223.844 287.108 C 223.894 287.797 223.675 288.479 223.228 289.004 C 222.568 289.114 221.891 288.971 221.332 288.607 C 220.373 287.982 219.574 287.142 219 286.153 C 218.424 285.162 218.09 284.051 218.025 282.909 Z" fill="#455A64" style=""/>
  <path d="M 219.475 281.829 C 219.177 281.636 218.846 281.505 218.497 281.443 C 218.149 281.381 217.791 281.388 217.445 281.469 C 217.445 281.469 216.982 281.724 216.706 281.914 C 215.882 282.528 215.273 283.387 214.969 284.37 C 214.664 285.352 214.682 286.406 215.014 287.378 C 215.35 288.35 215.984 289.192 216.829 289.779 C 217.673 290.365 218.683 290.669 219.711 290.645 C 220.418 290.63 221.113 290.452 221.74 290.123 L 222.393 289.744 C 222.634 289.471 222.816 289.152 222.927 288.807 C 223.04 288.462 223.077 288.096 223.04 287.733 C 222.942 286.542 222.572 285.385 221.953 284.362 C 221.335 283.337 220.486 282.468 219.475 281.829 Z" fill="#525289" style=""/>
  <path d="M 237.697 207.098 L 232.352 197.087 L 236.655 184.67 L 236.655 177.085 L 223.489 184.67 L 223.489 192.253 L 229.176 202.055 C 229.263 202.21 229.398 202.329 229.564 202.396 L 237.697 207.098 Z" fill="#525289" style=""/>
  <path opacity="0.2" d="M 237.697 207.098 L 232.352 197.087 L 236.655 184.67 L 236.655 177.085 L 223.489 184.67 L 223.489 192.253 L 229.176 202.055 C 229.263 202.21 229.398 202.329 229.564 202.396 L 237.697 207.098 Z" fill="black" style=""/>
  <path d="M 269.14 116.59 C 269.066 115.219 268.671 113.884 267.986 112.696 C 267.301 111.507 266.345 110.495 265.195 109.744 L 261.982 107.849 C 260.757 107.233 259.407 106.912 258.035 106.912 C 256.664 106.912 255.311 107.233 254.086 107.849 L 204.795 136.42 C 203.644 137.17 202.687 138.18 202 139.37 C 201.312 140.559 200.916 141.894 200.841 143.263 L 200.841 197.495 C 200.916 198.866 201.312 200.201 202 201.388 C 202.687 202.578 203.644 203.589 204.795 204.338 L 208.007 206.236 C 209.23 206.856 210.583 207.18 211.957 207.18 C 213.328 207.18 214.682 206.856 215.904 206.236 L 231.754 197.077 L 237.441 206.86 C 237.521 207 237.641 207.113 237.784 207.187 C 237.926 207.261 238.09 207.292 238.25 207.277 C 238.411 207.264 238.564 207.202 238.69 207.102 C 238.819 207.003 238.914 206.87 238.967 206.717 L 244.94 189.484 L 265.235 177.731 C 266.385 176.981 267.341 175.971 268.028 174.781 C 268.714 173.592 269.111 172.257 269.186 170.886 L 269.14 116.59 Z" fill="#525289" style=""/>
  <path opacity="0.2" d="M 200.841 197.476 C 200.916 198.848 201.312 200.182 202 201.369 C 202.687 202.559 203.644 203.57 204.795 204.32 L 208.007 206.214 C 209.121 206.775 210.339 207.094 211.585 207.149 C 212.83 207.206 214.073 206.996 215.231 206.537 C 213.335 207.239 211.951 206.188 211.951 203.941 L 211.951 149.69 C 212 148.317 212.398 146.981 213.107 145.803 L 201.998 139.349 C 201.288 140.528 200.891 141.868 200.841 143.245 L 200.841 197.476 Z" fill="black" style=""/>
  <path opacity="0.5" d="M 269.016 115.46 C 268.551 113.782 267.027 113.253 265.224 114.304 L 215.933 142.818 C 214.76 143.538 213.8 144.556 213.147 145.766 L 202.016 139.359 C 202.672 138.153 203.628 137.142 204.795 136.42 L 254.086 107.905 C 255.313 107.289 256.666 106.968 258.04 106.968 C 259.411 106.968 260.766 107.289 261.993 107.905 L 265.216 109.802 C 266.196 110.442 267.038 111.273 267.693 112.245 C 268.344 113.217 268.795 114.311 269.016 115.46 Z" fill="white" style=""/>
  <path d="M 262.115 131.966 C 258.873 139.547 262.874 151.225 260.022 160.544 C 257.167 169.861 252.001 173.958 246.417 173.238 C 245.764 162.809 249.033 152.137 254.437 143.369 C 249.29 148.59 242.38 157.275 243.858 172.923 C 239.612 171.086 235.725 162.809 240.256 152.639 C 246.475 138.656 262.115 131.966 262.115 131.966 Z" fill="white" style=""/>
  <path d="M 228.019 143.748 L 218.159 169.89 L 226.625 171.34 L 223.989 192.384 L 234.257 165.323 L 225.81 163.483 L 228.019 143.748 Z" fill="white" style=""/>
</svg>
