<svg xmlns="http://www.w3.org/2000/svg" viewBox="0 0 103 83"><defs><style>.cls-1{fill:none;stroke:#606060;stroke-miterlimit:10;stroke-width:3px;}</style></defs><g id="Слой_2" data-name="Слой 2"><g id="Слой_1-2" data-name="Слой 1"><path class="cls-1" d="M100.19,37.75a5.33,5.33,0,0,1-1.27-3.25C97.78,13.29,82.58,1.5,64,1.5c-15.61,0-28.82,6.85-33.33,23.21A15.36,15.36,0,0,1,15.92,36.07H12.43A11,11,0,0,0,1.5,47.15V61.43a5,5,0,0,0,5,5.07H12a15,15,0,0,1,30,0H61a15,15,0,0,1,30,0h5.5a5,5,0,0,0,5-5.07V41.14A5,5,0,0,0,100.19,37.75Z"/><circle class="cls-1" cx="76" cy="66.5" r="15"/><circle class="cls-1" cx="27" cy="66.5" r="15"/></g></g></svg>