<svg xmlns="http://www.w3.org/2000/svg" viewBox="0 0 83 103"><defs><style>.cls-1,.cls-2{fill:none;stroke:#606060;stroke-width:3px;}.cls-1{stroke-miterlimit:10;}.cls-2{stroke-linecap:round;stroke-linejoin:round;}</style></defs><g id="Слой_2" data-name="Слой 2"><g id="Слой_1-2" data-name="Слой 1"><path class="cls-1" d="M76.5,84.52H75a3.38,3.38,0,0,1-3.47-3.27v-75a4.88,4.88,0,0,0-5-4.72h-50a4.88,4.88,0,0,0-5,4.72v75A3.41,3.41,0,0,1,8,84.52H6.5a4.88,4.88,0,0,0-5,4.72v7.54a4.88,4.88,0,0,0,5,4.72h70a4.88,4.88,0,0,0,5-4.72V89.24A4.88,4.88,0,0,0,76.5,84.52Z"/><rect class="cls-1" x="31.5" y="16.12" width="22.86" height="15.09" rx="6.75"/><ellipse class="cls-1" cx="38.5" cy="23.2" rx="1.5" ry="1.42"/><ellipse class="cls-1" cx="47.5" cy="23.2" rx="1.5" ry="1.42"/><polyline class="cls-2" points="44.43 57.83 37.24 57.83 36.71 57.83 40.3 51.96 43.9 46.09"/><polyline class="cls-2" points="38.57 57.69 45.76 57.69 46.29 57.69 42.7 63.55 39.1 69.42"/></g></g></svg>