<svg id="Слой_1" data-name="Слой 1" xmlns="http://www.w3.org/2000/svg" viewBox="0 0 973 103"><defs><style>.cls-1,.cls-3,.cls-4{fill:none;stroke:#606060;stroke-width:3px;}.cls-1,.cls-4{stroke-linecap:round;}.cls-1,.cls-3{stroke-miterlimit:10;}.cls-2{fill:#606060;}.cls-4{stroke-linejoin:round;}</style></defs><path class="cls-1" d="M270,100a50,50,0,1,1,20.64,40.48" transform="translate(-48.5 -48.5)"/><polygon class="cls-2" points="233.77 41.56 231.57 39.51 221.5 50.35 211.43 39.51 209.23 41.56 221.5 54.75 233.77 41.56"/><polyline class="cls-1" points="256 52 271.59 52 279.38 38.5"/><path class="cls-3" d="M575,133h-1.53a3.38,3.38,0,0,1-3.47-3.27v-75A4.88,4.88,0,0,0,565,50H515a4.88,4.88,0,0,0-5,4.72v75a3.41,3.41,0,0,1-3.5,3.3H505a4.88,4.88,0,0,0-5,4.72v7.54a4.88,4.88,0,0,0,5,4.72h70a4.88,4.88,0,0,0,5-4.72v-7.54A4.88,4.88,0,0,0,575,133Z" transform="translate(-48.5 -48.5)"/><rect class="cls-3" x="481.5" y="16.12" width="22.86" height="15.09" rx="6.75"/><ellipse class="cls-3" cx="488.5" cy="23.2" rx="1.5" ry="1.42"/><ellipse class="cls-3" cx="497.5" cy="23.2" rx="1.5" ry="1.42"/><polyline class="cls-4" points="494.43 57.83 487.24 57.83 486.71 57.83 490.31 51.96 493.9 46.09"/><polyline class="cls-4" points="488.57 57.69 495.76 57.69 496.29 57.69 492.69 63.55 489.1 69.42"/><path class="cls-3" d="M728,124V99c0-21.66,14.33-39.22,32-39.22S792,77.36,792,99v25" transform="translate(-48.5 -48.5)"/><rect class="cls-3" x="671.5" y="75.52" width="80" height="19.61" rx="4.95"/><path class="cls-3" d="M768.8,143.63c0,3.52-3.94,6.37-8.8,6.37s-8.8-2.85-8.8-6.37" transform="translate(-48.5 -48.5)"/><path class="cls-3" d="M769.2,60.29c0-5.68-4.12-10.29-9.2-10.29s-9.2,4.61-9.2,10.29" transform="translate(-48.5 -48.5)"/><path class="cls-4" d="M999.08,90.5a23.78,23.78,0,0,0,6.37-17.75c-.76-12.1-10.9-22-23.35-22.7-14.53-.88-26.6,10.3-26.6,24.22a23.77,23.77,0,0,0,6.09,15.87,4.86,4.86,0,0,1-1.17,7.49A42.47,42.47,0,0,0,940,134.35V150h80V134.35A42.55,42.55,0,0,0,1000.18,98,4.86,4.86,0,0,1,999.08,90.5Z" transform="translate(-48.5 -48.5)"/><path class="cls-3" d="M148.69,96.25A5.33,5.33,0,0,1,147.42,93c-1.14-21.21-16.34-33-34.92-33-15.61,0-28.82,6.85-33.33,23.21A15.36,15.36,0,0,1,64.42,94.57H60.93A11,11,0,0,0,50,105.65v14.28A5,5,0,0,0,55,125h5.5a15,15,0,0,1,30,0h19a15,15,0,0,1,30,0H145a5,5,0,0,0,5-5.07V99.64A5,5,0,0,0,148.69,96.25Z" transform="translate(-48.5 -48.5)"/><circle class="cls-3" cx="76" cy="76.5" r="15"/><circle class="cls-3" cx="27" cy="76.5" r="15"/></svg>